<svg width="173" height="252" viewBox="0 0 173 252" fill="none" xmlns="http://www.w3.org/2000/svg">
<g clip-path="url(#clip0)">
<path d="M19.8745 142.531C16.3979 158.559 0.82835 165.413 -7.23354 178.315C-18.9737 197.165 -15.8497 215.863 -11.5668 235.066C-10.0552 241.819 -5.11729 246.557 1.88647 248.976C33.5798 260.064 65.4242 238.947 65.8777 205.531C66.1296 186.48 64.7188 167.429 63.963 145.303C72.176 153.367 78.3736 160.02 85.1254 165.967C104.927 183.406 132.59 187.69 152.442 176.703C170.581 166.623 176.225 152.511 171.337 129.327C168.364 115.164 158.992 109.368 137.578 107.907C124.729 107.05 111.83 105.941 99.0322 104.681C95.8074 104.379 91.7261 104.076 90.416 100.548C88.9548 96.6674 92.6835 94.5002 95.102 92.4338C102.408 86.3354 110.218 80.741 117.373 74.441C134.253 59.4218 132.237 24.293 113.695 6.80417C100.846 -5.34223 71.6722 -0.755831 57.715 15.8258C44.7152 31.2482 41.1378 49.6946 40.7347 69.2498C40.5835 75.6506 44.4633 84.5714 37.3084 87.6962C31.01 90.4178 25.4675 82.9586 19.9249 79.3802C12.4173 74.4914 5.46393 68.645 -2.29563 64.1594C-23.5589 51.8618 -47.9964 61.4882 -62.2055 87.2426C-74.1472 109.066 -67.4961 128.067 -44.1671 140.112C-30.5626 147.118 -16.4543 148.579 -1.6406 146.059C5.56471 144.85 12.77 143.791 19.9753 142.683C20.4792 142.481 20.9831 142.33 21.4869 142.128C20.9831 142.279 20.4288 142.431 19.8745 142.531Z" fill="#FBDB65"/>
</g>
<defs>
<clipPath id="clip0">
<rect width="241" height="252" fill="white" transform="translate(-68)"/>
</clipPath>
</defs>
</svg>
