<svg width="130" height="130" viewBox="0 0 130 130" fill="none" xmlns="http://www.w3.org/2000/svg">
<path d="M68 129C68 129.25 67.85 129.4 67.6 129.4L64.1 129.35C61.65 129.3 60.2 127.6 60.25 124.95L60.4 113.15C60.45 110.5 61.95 108.8 64.35 108.85L67.85 108.9C68.1 108.9 68.25 109.05 68.25 109.3L68 129ZM64.95 111.55H64.3C63.4 111.55 63.25 112.2 63.25 113.8L63.1 124.3C63.1 125.9 63.25 126.55 64.1 126.6H64.75C65 126.6 65.15 126.45 65.15 126.2L65.35 112C65.35 111.75 65.2 111.55 64.95 111.55Z" fill="#171C8F"/>
<path d="M57.65 108.65L53.75 127.95C53.7 128.2 53.55 128.3 53.25 128.25L51.25 127.85C51 127.8 50.9 127.6 50.95 127.35L54.85 108.05C54.9 107.8 55.05 107.65 55.35 107.75L57.35 108.15C57.55 108.2 57.7 108.4 57.65 108.65Z" fill="#171C8F"/>
<path d="M51.8 107.35L44.4 125.6C44.3 125.85 44.1 125.95 43.85 125.85L40.6 124.55C38.45 123.7 37.6 121.5 38.6 119.05L39.95 115.7C40.5 114.35 41.3 113.55 42.3 113.1C42.45 113 42.6 112.9 42.65 112.7L44.55 104.65C44.65 104.2 44.85 104.15 45.05 104.25L46.9 105C47.15 105.1 47.25 105.25 47.15 105.65L45.35 112.75C45.3 113 45.35 113.2 45.6 113.3L45.8 113.4C46.05 113.5 46.25 113.4 46.35 113.15L49.1 106.3C49.2 106.05 49.4 105.95 49.65 106.05L51.55 106.8C51.8 106.9 51.85 107.15 51.8 107.35ZM44.2 115.65C43.5 115.35 43 115.9 42.4 117.35L41.5 119.5C40.9 120.95 40.95 121.7 41.6 122L42.2 122.25C42.45 122.35 42.65 122.25 42.75 122L45 116.4C45.1 116.15 45 115.95 44.75 115.85L44.2 115.65Z" fill="#171C8F"/>
<path d="M31.5 119.5C31.35 119.7 31.15 119.75 30.95 119.6L26.85 116.8C26.65 116.65 26.6 116.45 26.75 116.25L27.75 114.8C27.9 114.6 28.1 114.55 28.3 114.7L30 115.85C30.2 116 30.45 115.95 30.55 115.75L33.6 111.2C33.75 111 33.7 110.75 33.5 110.65L31.8 109.5C31.6 109.35 31.55 109.15 31.7 108.95L32.7 107.5C32.85 107.3 33.05 107.25 33.25 107.4L34.95 108.55C35.15 108.7 35.4 108.65 35.5 108.45L38.7 103.75C38.85 103.55 38.8 103.3 38.6 103.2L36.9 102.05C36.7 101.9 36.65 101.7 36.8 101.5L37.8 100.05C37.95 99.85 38.15 99.8 38.35 99.95L42.45 102.75C42.65 102.9 42.7 103.1 42.55 103.3L31.5 119.5Z" fill="#171C8F"/>
<path d="M24.4 109.5C22.5 111.35 20.25 111.45 18.55 109.7C16.85 107.95 17.05 105.7 18.95 103.85L20.55 102.3C20.75 102.15 20.95 102.15 21.15 102.3L22.55 103.8C22.7 104 22.7 104.2 22.55 104.4L21.4 105.5C20.25 106.6 19.9 107.2 20.5 107.85C21.1 108.5 21.7 108.1 22.85 107L30.6 99.5C31.75 98.4 32.1 97.8 31.5 97.15C30.9 96.55 30.3 96.9 29.15 98L28 99.1C27.8 99.25 27.6 99.25 27.4 99.1L26 97.6C25.85 97.4 25.85 97.2 26 97L27.6 95.45C29.5 93.6 31.75 93.5 33.45 95.25C35.15 97 34.95 99.25 33.05 101.1L24.4 109.5Z" fill="#171C8F"/>
<path d="M12.8 102C12.6 102.15 12.35 102.1 12.25 101.85L9.05001 96.8C8.90001 96.6 8.95001 96.4 9.20001 96.25L10.8 95.25C11 95.1 11.25 95.15 11.35 95.4L12 96.4C12.15 96.6 12.35 96.65 12.55 96.55L26.9 87.5C27.1 87.35 27.3 87.4 27.45 87.65L28.55 89.4C28.7 89.6 28.65 89.85 28.4 89.95L14.05 99C13.85 99.15 13.8 99.35 13.9 99.55L14.5 100.5C14.65 100.7 14.6 100.9 14.35 101.05L12.8 102Z" fill="#171C8F"/>
<path d="M10.05 89.65C7.54998 90.55 5.44998 89.8 4.59998 87.5C3.74998 85.2 4.84998 83.25 7.29998 82.3L18.65 78.1C21.15 77.2 23.25 77.95 24.1 80.25C24.95 82.55 23.85 84.5 21.4 85.45L10.05 89.65ZM21.55 81.2C21.25 80.4 20.55 80.45 19.05 81L8.94998 84.75C7.44998 85.3 6.89998 85.7 7.19998 86.5C7.49998 87.3 8.19998 87.25 9.69998 86.7L19.8 82.95C21.25 82.45 21.85 82.05 21.55 81.2Z" fill="#171C8F"/>
<path d="M21.65 74.2L2.10003 76.7C1.85003 76.75 1.70002 76.6 1.65002 76.35L1.20002 72.9C0.900025 70.6 2.40002 68.8 5.00002 68.45L8.60002 68C10.05 67.8 11.15 68.1 12 68.8C12.15 68.9 12.3 68.95 12.55 68.9L20.5 66.6C20.95 66.5 21.1 66.6 21.1 66.85L21.35 68.85C21.4 69.1 21.3 69.3 20.9 69.4L13.8 71.3C13.55 71.35 13.4 71.5 13.45 71.75L13.5 71.95C13.55 72.2 13.7 72.35 13.95 72.3L21.3 71.35C21.55 71.3 21.7 71.45 21.75 71.7L22 73.75C22.05 74 21.9 74.2 21.65 74.2ZM10.7 71.7C10.6 70.95 9.90002 70.75 8.30002 70.95L6.00002 71.25C4.45002 71.45 3.80002 71.85 3.90002 72.55L4.00002 73.15C4.05002 73.4 4.20002 73.55 4.45002 73.5L10.4 72.75C10.65 72.7 10.8 72.55 10.75 72.3L10.7 71.7Z" fill="#171C8F"/>
<path d="M20.9 62.65L14 62.05C13.9 62.05 13.75 62.05 13.65 62.05L1.10001 63.4C0.850013 63.45 0.700012 63.3 0.700012 63.05L0.900012 60.85C0.900012 60.65 1.10001 60.5 1.35001 60.5L8.75001 60.2C8.90001 60.2 8.90001 59.95 8.75001 59.95L1.50001 58.4C1.25001 58.35 1.10001 58.15 1.10001 58L1.30001 55.8C1.30001 55.6 1.50001 55.45 1.75001 55.55L13.9 59.05C14 59.1 14.15 59.1 14.25 59.1L21.15 59.7C21.4 59.7 21.55 59.9 21.5 60.15L21.3 62.3C21.3 62.55 21.1 62.7 20.9 62.65Z" fill="#171C8F"/>
<path d="M7.95001 36.1C7.75001 36 7.65001 35.75 7.80001 35.55L9.55 32.55C10.8 30.45 13 30.05 15.3 31.35L25.5 37.3C27.8 38.65 28.5 40.75 27.3 42.85L25.55 45.85C25.45 46.05 25.2 46.1 25 46L7.95001 36.1ZM24.6 42.05L24.95 41.5C25.4 40.75 24.9 40.25 23.5 39.45L14.4 34.15C13.05 33.35 12.35 33.15 11.9 33.9L11.6 34.5C11.5 34.7 11.55 34.9 11.75 35.05L24.05 42.2C24.25 42.3 24.45 42.3 24.6 42.05Z" fill="#171C8F"/>
<path d="M30.75 37.1501L15.9 24.2001C15.7 24.0501 15.7 23.85 15.85 23.6L17.2 22.05C17.35 21.85 17.6 21.85 17.8 22L32.65 34.9501C32.85 35.1001 32.85 35.3001 32.7 35.5501L31.35 37.1001C31.2 37.2501 30.95 37.3001 30.75 37.1501Z" fill="#171C8F"/>
<path d="M34.75 32.65L22.5 17.25C22.35 17.05 22.35 16.85 22.55 16.65L25.3 14.45C27.1 13 29.4 13.35 31.05 15.4L33.3 18.25C34.2 19.4 34.5 20.45 34.4 21.55C34.4 21.7 34.4 21.9 34.6 22.05L40.65 27.65C40.95 27.95 40.95 28.15 40.75 28.3L39.2 29.55C39 29.7 38.8 29.75 38.5 29.45L33.25 24.45C33.1 24.25 32.85 24.25 32.65 24.4L32.5 24.5C32.3 24.65 32.3 24.9 32.45 25.1L37 30.85C37.15 31.05 37.15 31.25 36.95 31.45L35.35 32.75C35.15 32.85 34.95 32.85 34.75 32.65ZM31.3 22C31.9 21.55 31.7 20.8 30.7 19.6L29.25 17.8C28.25 16.55 27.6 16.2 27 16.65L26.5 17.05C26.3 17.2 26.3 17.45 26.45 17.65L30.2 22.35C30.35 22.55 30.6 22.55 30.8 22.4L31.3 22Z" fill="#171C8F"/>
<path d="M34.15 9.05C34.05 8.85 34.1 8.6 34.35 8.5L38.8 6.3C39 6.2 39.25 6.25 39.35 6.5L40.15 8.05C40.25 8.25 40.2 8.5 39.95 8.6L38.05 9.5C37.85 9.6 37.75 9.85 37.85 10.05L40.3 14.95C40.4 15.15 40.65 15.25 40.85 15.15L42.7 14.25C42.9 14.15 43.15 14.2 43.25 14.45L44.05 16C44.15 16.2 44.1 16.45 43.85 16.55L42 17.45C41.8 17.55 41.7 17.8 41.8 18L44.35 23.1C44.45 23.3 44.7 23.4 44.9 23.3L46.75 22.4C46.95 22.3 47.2 22.35 47.3 22.6L48.1 24.15C48.2 24.35 48.15 24.6 47.9 24.7L43.45 26.9C43.25 27 43 26.95 42.9 26.7L34.15 9.05Z" fill="#171C8F"/>
<path d="M46.4 7.80006C45.75 5.25005 46.75 3.20006 49.1 2.60006C51.45 2.00006 53.3 3.25006 53.95 5.85006L54.5 8.00006C54.55 8.25006 54.45 8.45006 54.2 8.50006L52.2 9.00006C51.95 9.05006 51.75 8.95006 51.7 8.70006L51.3 7.15006C50.9 5.60006 50.55 5.00006 49.75 5.20006C48.9 5.40006 48.9 6.10006 49.3 7.65006L51.95 18.1001C52.35 19.6501 52.65 20.2501 53.5 20.0501C54.3 19.8501 54.35 19.1501 53.95 17.6001L53.55 16.0501C53.5 15.8001 53.6 15.6001 53.85 15.5501L55.85 15.0501C56.1 15.0001 56.3 15.1001 56.35 15.3501L56.9 17.5001C57.55 20.0501 56.55 22.1001 54.2 22.7001C51.85 23.3001 50 22.0501 49.35 19.4501L46.4 7.80006Z" fill="#171C8F"/>
<path d="M58.65 1.40002C58.65 1.15002 58.8 1.00002 59.05 0.950025L65.05 0.650024C65.3 0.650024 65.45 0.750025 65.5 1.05002L65.6 2.95002C65.6 3.20002 65.45 3.35002 65.2 3.40002L64 3.45002C63.75 3.45002 63.6 3.65002 63.6 3.90002L64.4 20.85C64.4 21.1 64.3 21.25 64 21.3L61.95 21.4C61.7 21.4 61.55 21.25 61.5 21L60.7 4.05002C60.7 3.80002 60.5 3.65002 60.25 3.65002L59.15 3.70002C58.9 3.70002 58.75 3.60002 58.7 3.30002L58.65 1.40002Z" fill="#171C8F"/>
<path d="M70.65 5.10004C71.05 2.50004 72.8 1.05004 75.2 1.40004C77.6 1.80004 78.8 3.70004 78.4 6.30004L76.5 18.3C76.1 20.9 74.35 22.35 71.95 22C69.55 21.6 68.35 19.7 68.75 17.1L70.65 5.10004ZM72.35 19.25C73.2 19.4 73.5 18.75 73.75 17.15L75.45 6.50004C75.7 4.95004 75.65 4.25004 74.8 4.10004C73.95 3.95004 73.65 4.60004 73.4 6.20004L71.7 16.85C71.45 18.4 71.5 19.1 72.35 19.25Z" fill="#171C8F"/>
<path d="M78.45 22.8L85.9 4.55002C86 4.30002 86.2 4.20002 86.45 4.35002L89.7 5.70002C91.85 6.55002 92.7 8.75002 91.65 11.2L90.3 14.55C89.75 15.9 88.95 16.7 87.95 17.15C87.8 17.25 87.65 17.35 87.6 17.55L85.65 25.6C85.55 26.05 85.35 26.1 85.15 26L83.3 25.25C83.05 25.15 82.95 25 83.05 24.6L84.9 17.5C84.95 17.25 84.9 17.05 84.7 16.95L84.5 16.85C84.25 16.75 84.05 16.85 83.95 17.05L81.15 23.9C81.05 24.15 80.85 24.25 80.6 24.1L78.7 23.3C78.45 23.25 78.35 23 78.45 22.8ZM86.05 14.55C86.75 14.85 87.25 14.3 87.85 12.85L88.7 10.7C89.3 9.25002 89.3 8.50002 88.6 8.20002L88 7.95002C87.75 7.85002 87.55 7.95002 87.45 8.15002L85.15 13.7C85.05 13.95 85.15 14.15 85.35 14.25L86.05 14.55Z" fill="#171C8F"/>
<path d="M88.85 27.8L92.8 22.1C92.85 22 92.95 21.9 93 21.8L98 10.2C98.1 9.95001 98.3 9.90001 98.5 10.05L100.3 11.3C100.45 11.4 100.5 11.65 100.4 11.85L97 18.4C96.95 18.55 97.15 18.65 97.25 18.55L102.2 13.05C102.35 12.85 102.6 12.8 102.75 12.95L104.55 14.2C104.75 14.3 104.75 14.55 104.55 14.7L95.5 23.5C95.4 23.55 95.35 23.7 95.25 23.8L91.3 29.5C91.15 29.7 90.95 29.75 90.75 29.6L88.95 28.35C88.75 28.25 88.7 28 88.85 27.8Z" fill="#171C8F"/>
<path d="M118.35 29.65C118.55 29.55 118.75 29.55 118.9 29.8L120.65 32.85C121.9 34.95 121.15 37.1 118.85 38.4L108.65 44.35C106.35 45.7 104.15 45.25 102.9 43.15L101.15 40.1C101.05 39.9 101.1 39.65 101.3 39.55L118.35 29.65ZM104.95 41.2L105.3 41.75C105.75 42.5 106.4 42.3 107.8 41.5L116.9 36.2C118.25 35.4 118.8 34.9 118.35 34.15L118 33.6C117.9 33.4 117.65 33.35 117.45 33.5L105.15 40.65C104.9 40.8 104.85 41 104.95 41.2Z" fill="#171C8F"/>
<path d="M106.25 49L124.85 42.45C125.1 42.35 125.3 42.45 125.35 42.7L126.05 44.65C126.15 44.9 126.05 45.1 125.8 45.15L107.2 51.7C106.95 51.8 106.75 51.7 106.7 51.45L106 49.5C105.9 49.3 106 49.1 106.25 49Z" fill="#171C8F"/>
<path d="M108.1 54.65L127.55 51.6C127.8 51.55 128 51.65 128 51.95L128.55 55.4C128.9 57.65 127.5 59.55 124.85 59.95L121.3 60.5C119.85 60.7 118.75 60.45 117.85 59.8C117.7 59.7 117.55 59.65 117.3 59.7L109.4 62.2C109 62.3 108.8 62.2 108.8 61.95L108.5 60C108.45 59.75 108.55 59.55 108.95 59.45L116 57.35C116.25 57.3 116.4 57.1 116.35 56.9L116.3 56.7C116.25 56.45 116.05 56.3 115.85 56.35L108.55 57.5C108.3 57.55 108.1 57.45 108.1 57.15L107.8 55.1C107.75 54.9 107.9 54.7 108.1 54.65ZM119.15 56.9C119.25 57.65 120 57.8 121.55 57.6L123.8 57.25C125.35 57 126 56.6 125.9 55.85L125.8 55.25C125.75 55 125.55 54.85 125.35 54.9L119.4 55.85C119.15 55.9 119 56.1 119.05 56.3L119.15 56.9Z" fill="#171C8F"/>
<path d="M128.95 65.8C129.2 65.8 129.35 65.95 129.35 66.25L129.1 71.2C129.1 71.45 128.9 71.6 128.65 71.6L126.9 71.5C126.65 71.5 126.5 71.3 126.5 71.05L126.6 68.95C126.6 68.7 126.45 68.55 126.2 68.5L120.75 68.2C120.5 68.2 120.35 68.35 120.3 68.6L120.2 70.7C120.2 70.95 120 71.1 119.75 71.1L118 71C117.75 71 117.6 70.8 117.6 70.55L117.7 68.45C117.7 68.2 117.55 68.05 117.3 68L111.6 67.7C111.35 67.7 111.2 67.85 111.15 68.1L111.05 70.2C111.05 70.45 110.85 70.6 110.6 70.6L109 70.5C108.75 70.5 108.6 70.3 108.6 70.05L108.85 65.1C108.85 64.85 109.05 64.7 109.3 64.7L128.95 65.8Z" fill="#171C8F"/>
<path d="M124 77.1001C126.55 77.8001 127.8 79.6501 127.2 82.0001C126.55 84.3501 124.55 85.3501 122 84.6501L119.85 84.0501C119.6 84.0001 119.5 83.8001 119.55 83.5501L120.1 81.5501C120.15 81.3001 120.35 81.2001 120.6 81.2501L122.15 81.6501C123.7 82.0501 124.4 82.0501 124.6 81.2501C124.85 80.4001 124.2 80.0501 122.7 79.6501L112.3 76.8501C110.75 76.4501 110.05 76.4001 109.85 77.2501C109.65 78.0501 110.25 78.4501 111.75 78.8501L113.3 79.2501C113.55 79.3001 113.65 79.5001 113.6 79.7501L113.05 81.7501C113 82.0001 112.8 82.1001 112.55 82.0501L110.4 81.45C107.85 80.75 106.6 78.9001 107.2 76.5501C107.85 74.2001 109.85 73.2001 112.4 73.9001L124 77.1001Z" fill="#171C8F"/>
<path d="M123.55 90.9C123.75 91 123.85 91.25 123.75 91.45L121.05 96.8C120.95 97 120.75 97.1 120.5 97L118.8 96.15C118.6 96.05 118.5 95.8 118.6 95.6L119.15 94.55C119.25 94.35 119.2 94.1 118.95 94L103.8 86.3C103.6 86.2 103.5 86 103.6 85.75L104.55 83.9C104.65 83.7 104.9 83.6 105.1 83.7L120.25 91.4C120.45 91.5 120.7 91.45 120.8 91.2L121.3 90.2C121.4 90 121.6 89.9 121.85 90L123.55 90.9Z" fill="#171C8F"/>
<path d="M114.35 99.55C116.4 101.2 116.8 103.4 115.3 105.3C113.8 107.2 111.55 107.3 109.45 105.65L100 98.1C97.95 96.45 97.55 94.25 99.05 92.35C100.55 90.45 102.8 90.35 104.9 92L114.35 99.55ZM101.2 94.05C100.65 94.75 101.1 95.3 102.3 96.3L110.7 103.05C111.95 104.05 112.55 104.35 113.1 103.65C113.65 102.95 113.2 102.4 112 101.4L103.6 94.65C102.4 93.65 101.75 93.35 101.2 94.05Z" fill="#171C8F"/>
<path d="M95.2 97.55L107.4 113C107.55 113.2 107.55 113.4 107.35 113.6L104.6 115.75C102.8 117.15 100.5 116.85 98.85 114.75L96.6 111.9C95.7 110.75 95.4 109.7 95.5 108.6C95.5 108.45 95.5 108.25 95.3 108.1L89.25 102.45C88.95 102.15 88.95 101.95 89.15 101.8L90.7 100.55C90.9 100.4 91.1 100.35 91.4 100.65L96.7 105.75C96.85 105.95 97.1 105.95 97.3 105.8L97.45 105.65C97.65 105.5 97.65 105.25 97.5 105.05L92.9 99.25C92.75 99.05 92.75 98.85 92.95 98.65L94.55 97.4C94.8 97.3 95.05 97.35 95.2 97.55ZM98.65 108.25C98.05 108.7 98.25 109.45 99.25 110.7L100.65 112.5C101.65 113.75 102.3 114.1 102.85 113.65L103.35 113.25C103.55 113.1 103.55 112.85 103.4 112.65L99.65 107.95C99.5 107.75 99.25 107.75 99.05 107.9L98.65 108.25Z" fill="#171C8F"/>
<path d="M85.7 104.15L88.75 110.4C88.8 110.5 88.85 110.6 88.95 110.7L96.55 120.8C96.7 121 96.65 121.2 96.45 121.3L94.5 122.25C94.35 122.35 94.1 122.25 94 122.05L89.95 115.85C89.85 115.75 89.65 115.85 89.7 115.95L92.05 122.95C92.15 123.2 92.05 123.4 91.9 123.5L89.95 124.45C89.75 124.55 89.55 124.45 89.5 124.2L86.3 112C86.3 111.9 86.2 111.75 86.15 111.65L83.1 105.4C83 105.2 83.05 104.95 83.3 104.85L85.25 103.9C85.35 103.85 85.55 103.95 85.7 104.15Z" fill="#171C8F"/>
</svg>
