<svg width="118" height="26" viewBox="0 0 118 26" fill="none" xmlns="http://www.w3.org/2000/svg">
<path d="M0 15.9062C3.625 15.9062 3.625 18.9062 7.25 18.9062C10.875 18.9062 10.875 15.9062 14.5 15.9062C18.125 15.9062 18.125 18.9062 21.75 18.9062C25.375 18.9062 25.375 15.9062 29 15.9062" stroke="white" stroke-width="1.75"/>
<path d="M29 15.9062C32.375 15.9062 32.375 18.9062 35.75 18.9062C39.125 18.9062 39.125 15.9062 42.5 15.9062C45.875 15.9062 45.875 18.9062 49.25 18.9062C52.625 18.9062 52.625 15.9062 56 15.9062" stroke="white" stroke-width="1.75"/>
<path d="M56 15.9062C59.625 15.9062 59.625 18.9062 63.25 18.9062C66.875 18.9062 66.875 15.9062 70.5 15.9062C74.125 15.9062 74.125 18.9062 77.75 18.9062C81.375 18.9062 81.375 15.9062 85 15.9062" stroke="white" stroke-width="1.75"/>
<path d="M85 15.9062C88.375 15.9062 88.375 18.9062 91.75 18.9062C95.125 18.9062 95.125 15.9062 98.5 15.9062C101.875 15.9062 101.875 18.9062 105.25 18.9062C108.625 18.9062 108.625 15.9062 112 15.9062" stroke="white" stroke-width="1.75"/>
</svg>
