<svg width="320" height="37" viewBox="0 0 320 37" fill="none" xmlns="http://www.w3.org/2000/svg">
<path d="M26 1C12.245 1 1 12.2 1 25.9V37H51V25.9C51 12.2 39.8052 1 26 1ZM1.95382 36.05V25.9C1.95382 12.7 12.747 1.95 26 1.95C39.253 1.95 50.0462 12.7 50.0462 25.9V36H1.95382V36.05Z" fill="#2D3185"/>
<path d="M42.4659 27.1001H29.8153L42.1647 23.8001C42.4157 23.7501 42.5663 23.4501 42.5161 23.2001C42.4659 22.9501 42.1647 22.8001 41.9137 22.8501L29.6145 26.2001L40.759 19.8001C41.01 19.6501 41.0602 19.4001 40.9096 19.1501C40.759 18.9001 40.508 18.8501 40.257 19.0001L29.0623 25.4001L38.249 16.2501C38.3494 16.1501 38.3996 16.0501 38.3996 15.9001C38.3996 15.7501 38.3494 15.6501 38.249 15.5501C38.1486 15.4501 38.0482 15.4001 37.8976 15.4001C37.747 15.4001 37.6466 15.4501 37.5462 15.5501L28.4598 24.6501L34.986 13.4001C35.1366 13.1501 35.0362 12.9001 34.8354 12.7501C34.7349 12.7001 34.5843 12.6501 34.4839 12.7001C34.3835 12.7501 34.2831 12.8001 34.1827 12.9001L27.5562 24.3501L31.0201 11.5501C31.0703 11.3001 30.9197 11.0501 30.6687 10.9501C30.4177 10.9001 30.1667 11.0501 30.0663 11.3001L26.7028 23.8001V10.8001C26.7028 10.5501 26.502 10.3501 26.251 10.3501C26 10.3501 25.7992 10.5501 25.7992 10.8001V23.8001L22.3855 11.2001C22.3353 11.1001 22.2851 10.9501 22.1847 10.9001C22.0843 10.8501 21.9337 10.8001 21.8333 10.8501C21.5823 10.9001 21.4317 11.2001 21.4819 11.4501L24.9458 24.3501L18.1687 12.7501C18.0181 12.5001 17.7671 12.4501 17.5161 12.6001C17.4157 12.6501 17.3153 12.7501 17.3153 12.9001C17.2651 13.0001 17.3153 13.1501 17.3655 13.2501L23.992 24.7001L14.6546 15.3501C14.5542 15.2501 14.4538 15.2001 14.3032 15.2001C14.1526 15.2001 14.0522 15.2501 13.9518 15.3501C13.8514 15.4501 13.8012 15.5501 13.8012 15.7001C13.8012 15.8501 13.8514 15.9501 13.9518 16.0501L23.3394 25.4001L11.8936 18.8001C11.7932 18.7501 11.6426 18.7001 11.5422 18.7501C11.4418 18.8001 11.3414 18.8501 11.241 18.9501C11.0904 19.2001 11.1908 19.4501 11.3916 19.6001L22.8374 26.2001L10.1366 22.8001C10.0362 22.7501 9.88555 22.8001 9.78515 22.8501C9.68475 22.9001 9.58434 23.0001 9.58434 23.1501C9.53414 23.2501 9.58434 23.4001 9.63455 23.5001C9.68475 23.6001 9.78515 23.7001 9.93575 23.7001L22.5864 27.1001H9.53414C9.28314 27.1001 9.08234 27.3001 9.08234 27.5501C9.08234 27.8001 9.28314 28.0001 9.53414 28.0001H42.4659C42.7169 28.0001 42.9177 27.8001 42.9177 27.5501C42.9177 27.3001 42.7671 27.1001 42.4659 27.1001Z" fill="#2D3185"/>
<path d="M101.881 18.5684C101.826 19.6712 101.553 20.5417 101.061 21.1797C100.568 21.8177 99.9098 22.1367 99.085 22.1367C98.2327 22.1367 97.6859 21.7539 97.4443 20.9883C97.1982 21.3757 96.9157 21.665 96.5967 21.8564C96.2822 22.0433 95.9564 22.1367 95.6191 22.1367C94.972 22.1367 94.4821 21.8724 94.1494 21.3438C93.8167 20.8151 93.6937 20.0837 93.7803 19.1494C93.8486 18.3975 94.0195 17.7275 94.293 17.1396C94.571 16.5472 94.9264 16.0824 95.3594 15.7451C95.7969 15.4079 96.2549 15.2393 96.7334 15.2393C97.1025 15.2393 97.4329 15.2894 97.7246 15.3896C98.0163 15.4854 98.3444 15.6768 98.709 15.9639L98.3535 19.751C98.2669 20.8037 98.5586 21.3301 99.2285 21.3301C99.7435 21.3301 100.16 21.0749 100.479 20.5645C100.799 20.054 100.972 19.3887 100.999 18.5684C101.086 16.7956 100.755 15.4443 100.008 14.5146C99.265 13.585 98.1325 13.1201 96.6104 13.1201C95.6943 13.1201 94.8809 13.348 94.1699 13.8037C93.459 14.2549 92.8984 14.9089 92.4883 15.7656C92.0781 16.6224 91.848 17.6113 91.7979 18.7324C91.7432 19.8626 91.8799 20.8447 92.208 21.6787C92.5361 22.5081 93.0352 23.1416 93.7051 23.5791C94.3796 24.0212 95.193 24.2422 96.1455 24.2422C96.5557 24.2422 96.9658 24.1921 97.376 24.0918C97.7907 23.9915 98.1348 23.8617 98.4082 23.7021L98.6611 24.4883C98.3786 24.666 98.0026 24.8118 97.5332 24.9258C97.0684 25.0397 96.5967 25.0967 96.1182 25.0967C94.9788 25.0967 93.999 24.8392 93.1787 24.3242C92.3584 23.8138 91.7432 23.0755 91.333 22.1094C90.9274 21.1478 90.752 20.0221 90.8066 18.7324C90.8613 17.4792 91.1416 16.3535 91.6475 15.3555C92.1533 14.3529 92.8392 13.5804 93.7051 13.0381C94.571 12.4912 95.5485 12.2178 96.6377 12.2178C97.7725 12.2178 98.7454 12.473 99.5566 12.9834C100.368 13.4938 100.972 14.2298 101.368 15.1914C101.765 16.153 101.936 17.2786 101.881 18.5684ZM94.8672 19.1494C94.8034 19.7965 94.8626 20.2933 95.0449 20.6396C95.2318 20.986 95.5257 21.1592 95.9268 21.1592C96.2002 21.1592 96.4622 21.043 96.7129 20.8105C96.9681 20.5781 97.1777 20.2454 97.3418 19.8125L97.3486 19.751L97.6631 16.3125C97.4079 16.1803 97.1344 16.1143 96.8428 16.1143C96.3096 16.1143 95.8675 16.3854 95.5166 16.9277C95.1702 17.4701 94.9538 18.2106 94.8672 19.1494ZM113.322 20.6943C112.985 21.1774 112.513 21.5397 111.907 21.7812C111.305 22.0182 110.604 22.1367 109.802 22.1367C108.99 22.1367 108.27 21.9476 107.641 21.5693C107.012 21.1865 106.525 20.6442 106.178 19.9424C105.837 19.2406 105.661 18.4271 105.652 17.502V16.6338C105.652 15.1344 106.001 13.9723 106.698 13.1475C107.4 12.3226 108.384 11.9102 109.651 11.9102C110.69 11.9102 111.526 12.1768 112.16 12.71C112.793 13.2386 113.181 13.9906 113.322 14.9658H112.01C111.763 13.6488 110.98 12.9902 109.658 12.9902C108.778 12.9902 108.111 13.3001 107.655 13.9199C107.204 14.5352 106.976 15.4284 106.971 16.5996V17.4131C106.971 18.5296 107.227 19.4183 107.737 20.0791C108.247 20.7354 108.938 21.0635 109.808 21.0635C110.301 21.0635 110.731 21.0088 111.1 20.8994C111.469 20.79 111.775 20.6055 112.016 20.3457V18.1104H109.713V17.0439H113.322V20.6943ZM123.252 19.4023H119.083L118.146 22H116.792L120.593 12.0469H121.742L125.549 22H124.203L123.252 19.4023ZM119.479 18.3223H122.863L121.167 13.667L119.479 18.3223ZM132.78 17.9736H130.442V22H129.122V12.0469H132.417C133.538 12.0469 134.4 12.3021 135.001 12.8125C135.607 13.3229 135.91 14.0658 135.91 15.041C135.91 15.6608 135.742 16.2008 135.405 16.6611C135.072 17.1214 134.607 17.4655 134.01 17.6934L136.348 21.918V22H134.94L132.78 17.9736ZM130.442 16.9004H132.458C133.11 16.9004 133.627 16.7318 134.01 16.3945C134.397 16.0573 134.591 15.6061 134.591 15.041C134.591 14.4258 134.407 13.9541 134.037 13.626C133.673 13.2979 133.144 13.1315 132.451 13.127H130.442V16.9004ZM139.996 22V12.0469H142.806C143.672 12.0469 144.437 12.2383 145.103 12.6211C145.768 13.0039 146.281 13.5485 146.641 14.2549C147.005 14.9613 147.19 15.7725 147.194 16.6885V17.3242C147.194 18.263 147.012 19.0856 146.647 19.792C146.287 20.4984 145.77 21.0407 145.096 21.4189C144.426 21.7972 143.644 21.9909 142.751 22H139.996ZM141.309 13.127V20.9268H142.689C143.701 20.9268 144.487 20.6123 145.048 19.9834C145.613 19.3545 145.896 18.459 145.896 17.2969V16.7158C145.896 15.5856 145.629 14.7083 145.096 14.084C144.567 13.4551 143.815 13.1361 142.84 13.127H141.309ZM157.05 17.3994H152.736V20.9268H157.747V22H151.424V12.0469H157.679V13.127H152.736V16.3262H157.05V17.3994ZM169.27 22H167.951L162.94 14.3301V22H161.621V12.0469H162.94L167.964 19.751V12.0469H169.27V22ZM181.162 18.8418C181.039 19.8945 180.65 20.708 179.993 21.2822C179.342 21.8519 178.474 22.1367 177.389 22.1367C176.213 22.1367 175.27 21.7152 174.559 20.8721C173.853 20.029 173.499 18.901 173.499 17.4883V16.5312C173.499 15.6061 173.663 14.7926 173.992 14.0908C174.324 13.389 174.794 12.8512 175.4 12.4775C176.006 12.0993 176.708 11.9102 177.505 11.9102C178.562 11.9102 179.41 12.2064 180.048 12.7988C180.686 13.3867 181.058 14.2025 181.162 15.2461H179.843C179.729 14.4531 179.481 13.8789 179.098 13.5234C178.72 13.168 178.189 12.9902 177.505 12.9902C176.667 12.9902 176.008 13.3001 175.53 13.9199C175.056 14.5397 174.819 15.4215 174.819 16.5654V17.5293C174.819 18.6094 175.044 19.4684 175.495 20.1064C175.947 20.7445 176.578 21.0635 177.389 21.0635C178.118 21.0635 178.676 20.8994 179.064 20.5713C179.456 20.2386 179.715 19.6621 179.843 18.8418H181.162ZM186.608 22H185.296V12.0469H186.608V22ZM197.927 13.127H194.727V22H193.422V13.127H190.229V12.0469H197.927V13.127ZM204.788 17.0439L207.385 12.0469H208.876L205.444 18.2881V22H204.131V18.2881L200.7 12.0469H202.204L204.788 17.0439ZM219.517 18.8418C219.394 19.8945 219.004 20.708 218.348 21.2822C217.696 21.8519 216.828 22.1367 215.744 22.1367C214.568 22.1367 213.624 21.7152 212.913 20.8721C212.207 20.029 211.854 18.901 211.854 17.4883V16.5312C211.854 15.6061 212.018 14.7926 212.346 14.0908C212.679 13.389 213.148 12.8512 213.754 12.4775C214.36 12.0993 215.062 11.9102 215.86 11.9102C216.917 11.9102 217.765 12.2064 218.403 12.7988C219.041 13.3867 219.412 14.2025 219.517 15.2461H218.198C218.084 14.4531 217.835 13.8789 217.452 13.5234C217.074 13.168 216.543 12.9902 215.86 12.9902C215.021 12.9902 214.363 13.3001 213.884 13.9199C213.41 14.5397 213.173 15.4215 213.173 16.5654V17.5293C213.173 18.6094 213.399 19.4684 213.85 20.1064C214.301 20.7445 214.932 21.0635 215.744 21.0635C216.473 21.0635 217.031 20.8994 217.418 20.5713C217.81 20.2386 218.07 19.6621 218.198 18.8418H219.517ZM229.181 17.3994H224.867V20.9268H229.878V22H223.555V12.0469H229.81V13.127H224.867V16.3262H229.181V17.3994ZM241.401 22H240.082L235.071 14.3301V22H233.752V12.0469H235.071L240.096 19.751V12.0469H241.401V22ZM252.644 13.127H249.445V22H248.139V13.127H244.947V12.0469H252.644V13.127ZM261.987 17.3994H257.673V20.9268H262.684V22H256.361V12.0469H262.616V13.127H257.673V16.3262H261.987V17.3994ZM270.208 17.9736H267.87V22H266.551V12.0469H269.846C270.967 12.0469 271.828 12.3021 272.43 12.8125C273.036 13.3229 273.339 14.0658 273.339 15.041C273.339 15.6608 273.17 16.2008 272.833 16.6611C272.5 17.1214 272.036 17.4655 271.439 17.6934L273.777 21.918V22H272.368L270.208 17.9736ZM267.87 16.9004H269.887C270.539 16.9004 271.056 16.7318 271.439 16.3945C271.826 16.0573 272.02 15.6061 272.02 15.041C272.02 14.4258 271.835 13.9541 271.466 13.626C271.101 13.2979 270.573 13.1315 269.88 13.127H267.87V16.9004Z" fill="#171C8F"/>
</svg>
