<svg width="98" height="139" viewBox="0 0 98 139" fill="none" xmlns="http://www.w3.org/2000/svg">
<path d="M49.0251 0C22.001 0 0 21.9632 0 48.9408V139.05H98V48.9408C98 21.9632 76.0492 0 49.0251 0ZM1.8083 137.195V48.9408C1.8083 22.9661 23.0056 1.80519 49.0251 1.80519C75.0446 1.80519 96.2419 22.9661 96.2419 48.9408V137.245H1.8083V137.195Z" fill="white"/>
<path d="M81.3234 51.2977H56.2583L80.6202 44.7789C81.1225 44.6285 81.3737 44.1772 81.2732 43.6758C81.1225 43.1743 80.6704 42.9236 80.1681 43.0239L55.8063 49.5426L77.9078 36.806C78.1087 36.7057 78.2594 36.5051 78.3096 36.2544C78.3598 36.0037 78.3598 35.8031 78.2091 35.5524C78.0584 35.3017 77.9078 35.2014 77.6566 35.1512C77.4054 35.1011 77.2045 35.1011 76.9534 35.2515L54.8017 48.0383L72.9851 29.8861C73.1358 29.7356 73.2363 29.4849 73.2363 29.2342C73.2363 28.9835 73.1358 28.7829 72.9851 28.5823C72.8345 28.4319 72.5833 28.3316 72.3321 28.3316C72.081 28.3316 71.8801 28.4319 71.6791 28.5823L53.5961 46.6343L66.5054 24.3201C66.7565 23.8688 66.6059 23.3172 66.1538 23.0664C65.9529 22.9662 65.7017 22.916 65.4506 22.9662C65.1994 23.0163 64.9985 23.1667 64.898 23.3673L51.7878 45.9824L58.6192 20.5592C58.7699 20.0578 58.4685 19.6065 57.9662 19.4561C57.4639 19.3056 57.0118 19.6065 56.8611 20.1079L50.1804 44.9294V19.2053C50.1804 18.7039 49.7786 18.3027 49.2763 18.3027C48.774 18.3027 48.3721 18.7039 48.3721 19.2053V44.9795L41.7919 20.0076C41.7417 19.7569 41.591 19.5563 41.3901 19.4561C41.1891 19.3558 40.938 19.3056 40.6868 19.3558C40.1845 19.5062 39.9334 19.9575 40.0338 20.4589L46.9154 46.0827L33.6545 23.0664C33.4034 22.6151 32.8509 22.4647 32.3988 22.7154C32.1979 22.8157 32.0472 23.0163 31.9969 23.267C31.9467 23.5177 31.9467 23.7183 32.0974 23.969L45.1574 46.6343L26.6725 28.1812C26.3209 27.8302 25.7683 27.8302 25.4167 28.1812C25.2158 28.3316 25.1153 28.5823 25.1153 28.833C25.1153 29.0838 25.2158 29.2843 25.3665 29.4849L44.0021 48.0885L21.2476 34.9506C20.7955 34.6999 20.243 34.8504 19.9918 35.3017C19.7407 35.753 19.8913 36.3045 20.3434 36.5553L42.9974 49.6429L17.8821 42.8233C17.631 42.7732 17.43 42.7732 17.1789 42.9236C16.978 43.0239 16.8273 43.2245 16.777 43.4752C16.6264 43.9766 16.9277 44.4279 17.43 44.5784L42.5956 51.2977H16.6766C16.1743 51.2977 15.7724 51.6988 15.7724 52.2003C15.7724 52.7017 16.1743 53.1029 16.6766 53.1029H81.2732C81.7755 53.1029 82.1774 52.7017 82.1774 52.2003C82.2276 51.6988 81.8257 51.2977 81.3234 51.2977Z" fill="white"/>
<path d="M31.8462 73.2109C31.7458 72.7596 31.5951 72.2581 31.3439 71.8068C31.0928 71.3555 30.7914 70.9042 30.3393 70.5532C29.8872 70.2022 29.3347 69.9013 28.6817 69.7008C28.0287 69.5002 27.225 69.3999 26.2706 69.3999C25.3163 69.3999 24.5126 69.5002 23.8596 69.7008C23.2066 69.9013 22.654 70.2022 22.202 70.6034C21.7499 70.9544 21.3983 71.4057 21.1471 71.857C20.896 72.3083 20.7453 72.7596 20.6448 73.261C20.5443 73.7123 20.4941 74.2138 20.4439 74.6651C20.4439 75.1164 20.3936 75.4674 20.3936 75.8184V115.533C20.3936 116.084 20.4439 116.686 20.4941 117.338C20.5443 118.09 20.7955 118.792 21.1471 119.444C21.4987 120.146 22.1015 120.748 22.9052 121.199C23.7089 121.65 24.8139 121.901 26.2706 121.901C27.6771 121.901 28.7822 121.65 29.5859 121.199C30.3896 120.748 30.9421 120.146 31.3439 119.444C31.6955 118.792 31.8965 118.04 31.9467 117.338C31.9969 116.636 32.0472 116.034 32.0472 115.533V95.9262H25.3665V98.283H29.5356V115.432C29.5356 115.834 29.5356 116.335 29.4854 116.836C29.4854 117.288 29.3347 117.739 29.1338 118.19C28.9329 118.591 28.6315 118.942 28.2296 119.193C27.8278 119.494 27.1748 119.594 26.3209 119.594H26.2204C25.3665 119.594 24.7135 119.444 24.2614 119.193C23.8093 118.892 23.5079 118.591 23.307 118.19C23.1061 117.789 23.0056 117.338 22.9554 116.836C22.9052 116.335 22.9052 115.834 22.9052 115.432V75.9688C22.9052 75.5677 22.9052 75.1164 22.9554 74.6149C23.0056 74.1636 23.1061 73.7123 23.307 73.261C23.5079 72.8599 23.8093 72.5089 24.2614 72.2581C24.7135 72.0074 25.3665 71.857 26.2204 71.857H26.2706C27.1246 71.857 27.7776 72.0074 28.2296 72.2581C28.6817 72.559 28.9831 72.8599 29.184 73.261C29.3849 73.6622 29.4854 74.1135 29.5356 74.6149C29.5859 75.1164 29.5859 75.5677 29.5859 76.019V81.7856H32.0974V75.9187C32.0974 75.5677 32.0974 75.1665 32.0472 74.7653C32.0472 74.1636 31.9467 73.7123 31.8462 73.2109Z" fill="white"/>
<path d="M55.2537 73.261C55.1532 72.7596 55.0026 72.3083 54.7514 71.857C54.5002 71.4057 54.1989 70.9544 53.7468 70.6034C53.2947 70.2524 52.7422 69.9515 52.0892 69.7008C51.4362 69.5002 50.6325 69.3999 49.6781 69.3999C48.7237 69.3999 47.92 69.5002 47.267 69.7008C46.614 69.9013 46.0615 70.2022 45.6094 70.6034C45.1573 70.9544 44.8057 71.4057 44.5546 71.857C44.3034 72.3083 44.1527 72.7596 44.0523 73.261C43.9518 73.7123 43.9016 74.2138 43.8514 74.6651C43.8514 75.0662 43.8011 75.4674 43.8011 75.8184V115.533C43.8011 115.884 43.8011 116.285 43.8514 116.686C43.8514 117.137 43.9518 117.589 44.0523 118.04C44.1527 118.491 44.3537 118.993 44.5546 119.444C44.8057 119.945 45.1573 120.347 45.6094 120.698C46.0615 121.049 46.614 121.349 47.267 121.6C47.92 121.801 48.7237 121.951 49.6781 121.951C51.0846 121.951 52.1896 121.7 52.9933 121.249C53.797 120.798 54.3496 120.196 54.7514 119.494C55.103 118.842 55.3039 118.09 55.3542 117.388C55.4044 116.686 55.4546 116.084 55.4546 115.583V109.716H52.9431V115.483C52.9431 115.884 52.9431 116.385 52.8929 116.887C52.8929 117.338 52.7422 117.789 52.5413 118.24C52.3403 118.642 52.0389 118.993 51.6371 119.243C51.185 119.544 50.532 119.645 49.6781 119.645C48.8242 119.645 48.1712 119.494 47.7191 119.243C47.267 118.942 46.9656 118.591 46.7647 118.19C46.5638 117.789 46.4131 117.338 46.4131 116.836C46.3629 116.335 46.3629 115.884 46.3629 115.432V75.9688C46.3629 75.5677 46.3629 75.1164 46.4131 74.6149C46.4633 74.1636 46.5638 73.7123 46.7647 73.261C46.9656 72.8599 47.267 72.5089 47.7191 72.208C48.1712 71.9071 48.8242 71.7567 49.6279 71.7567H49.6781C50.532 71.7567 51.185 71.9071 51.6371 72.1578C52.0892 72.4587 52.3906 72.7596 52.5413 73.1607C52.7422 73.5619 52.8426 74.0132 52.8929 74.5146C52.9431 75.0161 52.9431 75.4674 52.9431 75.9187V81.6853H55.4546V75.8184C55.4546 75.4674 55.4546 75.0662 55.4044 74.6651C55.4044 74.2138 55.3542 73.7625 55.2537 73.261Z" fill="white"/>
<path d="M77.3552 73.261C77.2547 72.8097 77.1041 72.3083 76.8529 71.857C76.6018 71.4057 76.3004 70.9544 75.8483 70.6034C75.3962 70.2524 74.8437 69.9515 74.1907 69.7008C73.5377 69.5002 72.734 69.3999 71.7796 69.3999C70.8252 69.3999 70.0215 69.5002 69.3685 69.7008C68.7155 69.9013 68.163 70.2022 67.7109 70.6034C67.2588 70.9544 66.9072 71.4057 66.6561 71.857C66.4049 72.3083 66.2542 72.7596 66.1538 73.261C66.0533 73.7123 66.0031 74.2138 65.9529 74.6651C65.9529 75.1164 65.9026 75.4674 65.9026 75.8184V115.533C65.9026 115.884 65.9026 116.235 65.9529 116.686C65.9529 117.137 66.0533 117.589 66.1538 118.04C66.2542 118.491 66.4552 118.993 66.6561 119.444C66.9072 119.895 67.2588 120.347 67.7109 120.698C68.163 121.049 68.7155 121.349 69.3685 121.6C70.0215 121.801 70.8252 121.951 71.7796 121.951C73.1861 121.951 74.2911 121.7 75.0948 121.249C75.8985 120.798 76.4511 120.196 76.8529 119.494C77.2045 118.842 77.4054 118.09 77.4557 117.388C77.5059 116.686 77.5561 116.084 77.5561 115.583V109.716H75.0446V115.483C75.0446 115.884 75.0446 116.385 74.9944 116.887C74.9944 117.338 74.8437 117.789 74.6428 118.24C74.4418 118.642 74.1404 118.993 73.7386 119.243C73.2865 119.544 72.6335 119.645 71.7796 119.645C70.9257 119.645 70.2727 119.494 69.8206 119.243C69.3685 118.942 69.0672 118.591 68.8662 118.19C68.6653 117.789 68.5146 117.338 68.5146 116.836C68.4644 116.335 68.4644 115.834 68.4644 115.432V75.9688C68.4644 75.5677 68.4644 75.1164 68.5146 74.6149C68.5648 74.1636 68.6653 73.7123 68.8662 73.261C69.0672 72.8599 69.3685 72.5089 69.8206 72.208C70.2727 71.9071 70.9257 71.7567 71.7294 71.7567H71.7796C72.6335 71.7567 73.2865 71.9071 73.7386 72.1578C74.1907 72.4587 74.4921 72.7596 74.6428 73.1607C74.8437 73.5619 74.9441 74.0132 74.9944 74.5146C75.0446 75.0161 75.0446 75.4674 75.0446 75.9187V81.6853H77.5561V75.8184C77.5561 75.4674 77.5561 75.1164 77.5059 74.6651C77.5059 74.2138 77.4557 73.7123 77.3552 73.261Z" fill="white"/>
</svg>
