<svg width="223" height="178" viewBox="0 0 223 178" fill="none" xmlns="http://www.w3.org/2000/svg">
<path d="M200.36 0C205.174 0.817217 205.523 4.00826 206.416 6.45991C220.626 45.4917 232.195 85.3019 235.612 126.785C241.28 195.081 170.543 243.881 116.617 228.042C81.404 217.691 57.4497 192.396 38.9308 161.77C21.2272 132.35 14.2001 98.6887 2.70828 66.8172C1.66004 63.8986 -0.436445 60.3573 2.47533 57.6722C5.42594 54.987 8.76478 57.4776 11.4048 58.9564C29.1084 69.0743 46.7732 79.309 64.3215 89.6993C75.1922 96.1203 76.8228 95.7311 80.4722 83.4729C85.8687 65.1828 91.0711 46.8149 96.2734 28.4859C98.7193 19.8856 101.825 18.0955 109.202 25.1392C123.994 39.2264 139.678 52.3797 155.014 65.8833C168.097 77.4021 169.184 76.8184 175.28 60.98C183.2 40.355 192.052 20.1191 200.36 0Z" fill="#7BA3D6"/>
</svg>
