<svg width="236" height="34" viewBox="0 0 236 34" fill="none" xmlns="http://www.w3.org/2000/svg">
<path d="M8.17186 1.7C7.87237 1.2325 7.44453 0.8075 6.84554 0.4675C6.24656 0.17 5.43365 0 4.40682 0C3.42277 0 2.60986 0.17 2.01088 0.51C1.41189 0.8075 0.984047 1.2325 0.684554 1.7C0.385062 2.1675 0.171139 2.6775 0.0855693 3.23C0.0427846 3.74 0 4.2075 0 4.6325V29.3675C0 29.7925 0.0427846 30.26 0.0855693 30.77C0.171139 31.3225 0.342277 31.8325 0.641769 32.3C0.941262 32.7675 1.41189 33.1925 1.96809 33.5325C2.60986 33.83 3.42277 34 4.4496 34C5.47643 34 6.28934 33.83 6.84554 33.5325C7.44453 33.1925 7.87237 32.81 8.17186 32.3C8.47136 31.8325 8.6425 31.3225 8.68528 30.77C8.77085 30.26 8.77085 29.7925 8.77085 29.3675V17.68H4.36403V19.975H6.50326V29.1975C6.50326 29.4525 6.50326 29.75 6.46048 30.0475C6.46048 30.345 6.37491 30.6425 6.24656 30.8975C6.1182 31.1525 5.94706 31.365 5.64757 31.535C5.39086 31.705 4.96302 31.79 4.40682 31.79C3.85062 31.79 3.46556 31.705 3.16606 31.535C2.86657 31.365 2.65265 31.1525 2.52429 30.8975C2.39594 30.6425 2.31037 30.345 2.31037 30.0475C2.31037 29.75 2.26759 29.4525 2.26759 29.1975V4.8025C2.26759 4.5475 2.26759 4.25 2.31037 3.9525C2.31037 3.655 2.39594 3.3575 2.52429 3.1025C2.65265 2.8475 2.86657 2.635 3.16606 2.465C3.46556 2.295 3.85062 2.21 4.40682 2.21C4.92023 2.21 5.34808 2.295 5.64757 2.465C5.90428 2.635 6.1182 2.8475 6.24656 3.1025C6.37491 3.3575 6.46048 3.655 6.46048 3.9525C6.46048 4.2925 6.50326 4.5475 6.50326 4.8025V9.01H8.81363V4.6325C8.81363 4.2075 8.77085 3.74 8.72806 3.23C8.6425 2.6775 8.42857 2.1675 8.17186 1.7Z" fill="white"/>
<path d="M21.6918 0.254999H18.5257L14.8035 33.5325L14.7607 33.745H17.1139L17.9695 24.5225H22.248L23.1037 33.575V33.745H25.4141L21.6918 0.424999V0.254999ZM20.1088 3.9525L21.9913 22.3125H18.1835L20.1088 3.9525Z" fill="white"/>
<path d="M39.2335 18.4875C39.6614 18.1475 40.0036 17.68 40.2176 17.1275C40.4743 16.5325 40.6026 15.81 40.6026 14.96V4.6325C40.6026 3.995 40.517 3.4 40.3459 2.89C40.1748 2.3375 39.9181 1.87 39.533 1.4875C39.1479 1.105 38.6773 0.807499 38.1211 0.594999C37.5649 0.382499 36.8376 0.297499 36.0674 0.297499H31.789V33.745H34.0994V19.38H35.9819C36.2386 19.38 36.4525 19.38 36.6664 19.3375C36.8376 19.3375 36.9659 19.295 37.1371 19.295L38.7629 33.575L38.8057 33.745H41.1588L39.3191 18.87L39.2335 18.4875ZM38.2922 5.015V14.62C38.2922 15.13 38.2495 15.555 38.1639 15.9375C38.0783 16.2775 37.95 16.5325 37.7788 16.745C37.6077 16.9575 37.351 17.085 37.0515 17.17C36.752 17.255 36.3669 17.2975 35.8963 17.2975H34.0138V2.38H36.0674C36.8804 2.38 37.4793 2.5925 37.7788 2.975C38.1211 3.3575 38.2922 4.0375 38.2922 5.015Z" fill="white"/>
<path d="M55.3633 1.615C55.021 1.19 54.5076 0.849999 53.9086 0.594999C53.3096 0.339999 52.4967 0.254999 51.5555 0.254999H47.4482V33.7025H51.5555C52.4967 33.7025 53.3096 33.575 53.9086 33.3625C54.5504 33.15 55.021 32.81 55.3633 32.385C55.7056 31.96 55.9623 31.45 56.0906 30.855C56.219 30.26 56.2618 29.6225 56.2618 28.9V5.1C56.2618 4.3775 56.219 3.74 56.0906 3.145C55.9623 2.5925 55.7056 2.04 55.3633 1.615ZM49.7157 2.38H51.4699C51.8978 2.38 52.2828 2.4225 52.6251 2.465C52.9246 2.5075 53.1813 2.635 53.3524 2.8475C53.5664 3.0175 53.6947 3.315 53.7803 3.655C53.8658 3.995 53.9086 4.505 53.9086 5.1V28.9C53.9086 29.495 53.8658 30.005 53.7375 30.345C53.6519 30.685 53.4808 30.9825 53.3096 31.1525C53.1385 31.3225 52.8818 31.45 52.5823 31.535C52.2828 31.62 51.8978 31.62 51.4271 31.62H49.673V2.38H49.7157Z" fill="white"/>
<path d="M63.4924 33.745H71.108V31.6625H65.8027V17.68H70.2096V15.5125H65.8027V2.4225H71.108V0.254999H63.4924V33.745Z" fill="white"/>
<path d="M83.7295 25.6275L79.9645 0.424999L79.9217 0.254999H76.9695V33.745H79.1516L79.066 6.4175L82.831 33.575L82.8738 33.745H85.826V0.254999H83.6867L83.7295 25.6275Z" fill="white"/>
<path d="M110.983 2.72C110.898 2.38 110.727 2.04 110.555 1.7C110.384 1.36 110.085 1.0625 109.785 0.8075C109.443 0.5525 109.058 0.34 108.587 0.2125C108.117 0.0425 107.518 0 106.876 0C105.849 0 105.036 0.17 104.48 0.4675C103.881 0.8075 103.453 1.19 103.111 1.7C102.811 2.1675 102.64 2.6775 102.555 3.23C102.469 3.74 102.426 4.2075 102.426 4.6325V29.3675C102.426 29.7925 102.469 30.26 102.555 30.77C102.64 31.3225 102.811 31.8325 103.111 32.3C103.41 32.7675 103.881 33.1925 104.437 33.5325C105.036 33.8725 105.849 34.0425 106.876 34.0425C107.903 34.0425 108.716 33.8725 109.272 33.5325C109.871 33.1925 110.299 32.81 110.598 32.3C110.898 31.8325 111.069 31.3225 111.112 30.77C111.197 30.26 111.197 29.7925 111.197 29.3675V24.99H108.887V29.1975C108.887 29.4525 108.887 29.75 108.887 30.0475C108.887 30.345 108.801 30.6425 108.673 30.8975C108.545 31.1525 108.373 31.365 108.074 31.535C107.817 31.705 107.389 31.79 106.876 31.79H106.833C106.277 31.79 105.892 31.705 105.592 31.535C105.293 31.365 105.079 31.1525 104.951 30.8975C104.822 30.6425 104.737 30.345 104.737 30.0475C104.737 29.75 104.694 29.4525 104.694 29.1975V4.8025C104.694 4.5475 104.694 4.25 104.737 3.9525C104.737 3.655 104.822 3.3575 104.951 3.1025C105.079 2.8475 105.293 2.635 105.592 2.465C105.892 2.295 106.277 2.21 106.833 2.21C107.389 2.21 107.774 2.295 108.074 2.465C108.331 2.635 108.545 2.8475 108.673 3.1025C108.801 3.3575 108.887 3.655 108.887 3.9525C108.887 4.2925 108.93 4.59 108.93 4.8025V9.01H111.24V4.6325C111.24 4.3775 111.24 4.0375 111.197 3.6975C111.154 3.4 111.069 3.06 110.983 2.72Z" fill="white"/>
<path d="M118.941 0.254999H116.631V33.7025H118.941V0.254999Z" fill="white"/>
<path d="M123.049 2.38H126.343V33.745H128.653V2.38H131.905V0.254999H123.049V2.38Z" fill="white"/>
<path d="M140.162 15.47L137.809 0.424999V0.254999H135.413L139.007 19.72V33.745H141.318V19.7625L144.869 0.467499L144.912 0.254999H142.516L140.162 15.47Z" fill="white"/>
<path d="M167.16 2.72C167.074 2.38 166.903 2.04 166.732 1.7C166.561 1.36 166.261 1.0625 165.962 0.8075C165.619 0.5525 165.234 0.34 164.764 0.2125C164.293 0.0425 163.694 0 163.052 0C162.025 0 161.212 0.17 160.656 0.4675C160.057 0.8075 159.629 1.19 159.287 1.7C158.988 2.1675 158.817 2.6775 158.731 3.23C158.645 3.74 158.603 4.2075 158.603 4.6325V29.3675C158.603 29.7925 158.645 30.26 158.731 30.77C158.817 31.3225 158.988 31.8325 159.287 32.3C159.587 32.7675 160.057 33.1925 160.613 33.5325C161.212 33.8725 162.025 34.0425 163.052 34.0425C164.079 34.0425 164.892 33.8725 165.448 33.5325C166.047 33.1925 166.475 32.81 166.774 32.3C167.074 31.8325 167.245 31.3225 167.288 30.77C167.373 30.26 167.373 29.7925 167.373 29.3675V24.99H165.063V29.1975C165.063 29.4525 165.063 29.75 165.063 30.0475C165.063 30.345 164.978 30.6425 164.849 30.8975C164.721 31.1525 164.55 31.365 164.25 31.535C163.993 31.705 163.566 31.79 163.052 31.79H163.009C162.496 31.79 162.068 31.705 161.769 31.535C161.469 31.365 161.255 31.1525 161.127 30.8975C160.999 30.6425 160.913 30.345 160.913 30.0475C160.913 29.7075 160.87 29.4525 160.87 29.1975V4.8025C160.87 4.5475 160.87 4.2925 160.913 3.9525C160.913 3.655 160.999 3.3575 161.127 3.1025C161.255 2.8475 161.469 2.635 161.769 2.465C162.068 2.295 162.453 2.21 163.009 2.21C163.566 2.21 163.951 2.295 164.25 2.465C164.507 2.635 164.721 2.8475 164.849 3.1025C164.978 3.3575 165.063 3.655 165.063 3.9525C165.063 4.2925 165.106 4.59 165.106 4.8025V9.01H167.416V4.6325C167.416 4.3775 167.416 4.0375 167.373 3.6975C167.288 3.4 167.245 3.06 167.16 2.72Z" fill="white"/>
<path d="M173.192 33.745H180.808V31.6625H175.503V17.68H179.909V15.5125H175.503V2.4225H180.808V0.254999H173.192V33.745Z" fill="white"/>
<path d="M193.001 27.1575L189.236 0.424999L189.194 0.254999H186.284V33.745H188.424L188.381 6.8L192.146 33.575V33.745H195.098V0.254999H192.959L193.001 27.1575Z" fill="white"/>
<path d="M200.061 2.38H203.313V33.745H205.623V2.38H208.875V0.254999H200.061V2.38Z" fill="white"/>
<path d="M213.88 33.745H221.496V31.6625H216.148V17.68H220.597V15.5125H216.148V2.4225H221.496V0.254999H213.88V33.745Z" fill="white"/>
<path d="M234.118 18.87L234.032 18.4875C234.46 18.1475 234.802 17.68 235.016 17.1275C235.273 16.5325 235.401 15.81 235.401 14.96V4.6325C235.401 3.995 235.315 3.4 235.144 2.89C234.973 2.3375 234.716 1.87 234.331 1.4875C233.946 1.105 233.476 0.807499 232.92 0.594999C232.363 0.382499 231.636 0.297499 230.866 0.297499H226.587V33.745H228.898V19.38H230.78C231.037 19.38 231.251 19.38 231.465 19.3375C231.636 19.3375 231.764 19.295 231.935 19.295L233.604 33.575L233.647 33.745H236L234.118 18.87ZM232.62 2.975C232.962 3.3575 233.091 4.08 233.091 5.015V14.62C233.091 15.13 233.048 15.555 232.962 15.9375C232.877 16.2775 232.748 16.5325 232.577 16.745C232.406 16.9575 232.149 17.085 231.85 17.17C231.55 17.255 231.165 17.2975 230.695 17.2975H228.812V2.38H230.866C231.722 2.38 232.321 2.5925 232.62 2.975Z" fill="white"/>
</svg>
