<svg width="298" height="216" viewBox="0 0 298 216" fill="none" xmlns="http://www.w3.org/2000/svg">
<path d="M296.882 65.5363C296.825 65.4392 296.797 65.3179 296.74 65.2208C291.891 54.2001 276.118 49.0539 253.472 51.1173C232.423 53.035 211.46 60.8028 205.527 63.1574C203.645 63.9099 201.734 64.6624 199.794 65.4149C190.04 69.2746 179.972 73.2799 171.929 75.7559C160.178 79.3728 158.267 77.9649 158.096 77.7949C157.839 77.5522 157.639 77.2609 157.497 76.8968C155.158 71.5807 164.057 57.3558 174.011 46.6993C182.767 37.3051 190.468 23.4929 185.819 12.9335C184.336 9.58363 181.712 6.71924 178.032 4.46172C169.419 -0.781572 160.549 -1.41271 151.564 2.61686C143.778 6.11238 137.218 12.5451 132.341 17.7641C121.217 29.7072 109.181 47.646 101.024 60.6086C98.5709 64.4925 96.4033 68.3279 94.5209 71.702C92.3532 75.5374 90.4708 78.863 88.7595 81.2662C86.763 84.082 85.7647 84.4947 85.565 84.5675C85.2228 84.4219 84.909 84.0577 84.6523 83.4994C83.4544 80.7564 84.139 75.0762 84.795 69.5902C85.3654 64.9295 85.9358 60.0988 85.508 56.2635C84.852 50.6803 83.7682 43.4465 80.9731 37.1109C77.9783 30.2655 73.5574 25.8961 67.8531 24.0755C54.1341 19.7304 40.6149 31.989 36.7644 39.2228C32.857 46.5294 31.7161 65.3421 34.5683 75.1733C39.4455 92.0198 38.3617 97.9428 36.5933 99.9333C33.3989 103.55 25.1276 103.672 11.9506 100.346C8.18572 99.3992 4.10712 98.1612 0 96.8261V131.49C6.50294 133.189 12.8633 134.185 18.5106 135.083C28.5502 136.661 36.5078 137.923 39.9874 141.977C41.3279 143.53 42.754 146.031 44.2371 149.429C45.5491 152.439 46.8326 155.934 48.059 159.648C49.7989 164.868 51.4246 170.499 52.9362 175.718C53.9915 179.359 54.9898 182.806 55.9595 185.889C56.3018 187.006 56.7581 188.171 57.2715 189.385C62.0632 200.284 73.4148 213.198 85.0231 215.601C89.9859 216.645 94.6349 215.625 98.4568 212.713C105.758 207.129 107.755 200.891 104.589 193.681C102.849 189.749 99.7974 185.889 96.8311 182.151C96.1181 181.229 95.3765 180.306 94.6635 179.384C93.9789 178.485 93.2659 177.587 92.5814 176.689C88.9591 172.028 85.1943 167.222 83.54 163.46C82.7129 161.615 82.5988 160.425 82.7699 159.648C83.0266 158.58 83.9108 158.265 84.5668 158.046C85.1087 157.852 86.82 157.682 91.0982 159.648C93.9219 160.959 97.8864 163.193 103.42 167.004C112.404 173.218 122.215 181.277 129.374 187.151C130.544 188.122 131.656 189.021 132.654 189.846C143.749 198.9 160.206 209.654 175.494 209.363C182.139 209.241 187.929 207.008 192.692 202.76C198.197 197.832 199.709 192.395 197.142 186.545C192.664 176.349 176.321 167.319 165.483 161.348C164.427 160.765 163.401 160.207 162.459 159.673C162.431 159.648 162.402 159.648 162.374 159.624C161.29 159.017 160.178 158.386 159.008 157.755C148.313 151.808 133.681 143.676 131.513 138.748C131.086 137.801 131.428 137.51 131.656 137.292C131.97 137 135.335 134.694 155.243 139.792C166.025 142.559 179.63 147.001 191.609 151.686C199.538 154.769 206.725 157.415 213.285 159.624C229.6 165.135 241.892 167.999 251.105 168.484C257.465 168.824 270.699 166.834 279.17 160.085C279.37 159.94 279.541 159.77 279.712 159.624C284.19 155.837 286.472 151.274 286.5 146.006C286.5 142.632 285.901 139.525 284.675 136.733C280.454 127.145 268.959 121.368 251.362 120.008C244.63 119.498 237.871 119.596 231.339 119.717C225.293 119.814 219.588 119.911 214.455 119.498C205.812 118.795 195.972 117.387 188.129 115.736C178.346 113.648 175.237 111.998 174.353 111.367C174.952 110.833 176.692 109.862 181.883 108.866C187.245 107.847 194.603 107.07 203.16 106.196C217.592 104.691 235.589 102.822 252.902 98.7438C276.29 93.2092 290.721 86.1939 295.827 77.8678C298.337 73.911 298.651 69.7844 296.882 65.5363Z" fill="#F5333F"/>
</svg>
