<svg width="261" height="173" viewBox="0 0 261 173" fill="none" xmlns="http://www.w3.org/2000/svg">
<path d="M32.9576 27.7741C20.9136 38.2538 11.5305 50.783 4.24807 64.8957C-3.45449 79.8933 -0.466833 99.5952 11.0637 111.426C23.1543 123.815 37.8592 125.678 55.3184 117.667C72.9175 109.609 86.5487 96.428 100.367 83.4797C103.448 80.592 105.875 76.6795 110.45 75.1891C110.777 76.4932 111.15 77.1453 111.01 77.6577C110.263 80.4523 109.376 83.2003 108.583 85.9483C103.168 105.091 101.627 124.327 106.622 143.89C114.185 173.326 146.442 182.641 168.383 161.542C179.119 151.249 183.788 138.114 185.888 123.862C186.775 117.76 186.915 111.519 187.476 104.486C191.444 107.793 191.957 111.426 193.264 114.593C198.399 126.843 204.841 138.161 214.598 147.429C221.927 154.369 230.797 158.049 240.46 159.353C248.956 160.517 256.052 157.909 260.907 152.739V100.34V49.8514V-27H107.322C103.261 -23.7396 99.1996 -20.5724 95.0916 -17.7313C74.0379 -3.1062 52.4241 10.9134 32.9576 27.7741Z" fill="#E06BA9"/>
</svg>
