<svg width="333" height="476" viewBox="0 0 333 476" fill="none" xmlns="http://www.w3.org/2000/svg">
<g clip-path="url(#clip0)">
<path d="M188.664 0.449142C204.098 -1.25727 220.026 2.4699 235.998 5.25405C243.536 6.55631 247.439 9.20575 242.055 17.3337C211.95 62.5537 175.518 100.499 123.204 119.584C85.4261 133.37 46.9754 134.088 8.25552 122.997C6.2725e-05 120.572 -2.1984 117.159 2.24339 109.076C33.5154 52.3152 79.8178 16.3008 144.112 4.26612C158.604 1.57178 172.961 -0.404065 188.664 0.449142Z" fill="#7BA3D6"/>
<path d="M46.3024 163.681C23.2409 170.417 15.1201 193.498 20.2349 213.931C23.6447 227.492 42.1747 243.568 63.5312 237.551C85.7401 231.309 99.8731 209.799 93.9059 190.669C87.8937 171.54 65.5053 158.068 46.3024 163.681Z" fill="#EE3441"/>
<path d="M322.726 454.266C321.694 455.433 320.527 456.646 319.226 457.813C307.65 468.636 288.089 478.47 274.629 475.416C268.841 474.114 264.668 470.477 262.47 464.953C258.297 454.401 260.002 445.779 267.674 438.639C271.847 434.732 277.365 431.633 282.66 428.625C283.961 427.861 285.262 427.143 286.563 426.379C287.819 425.661 289.076 424.897 290.377 424.179C296.972 420.407 303.792 416.455 307.74 412.773C312.406 408.417 310.881 406.666 309.983 405.633C309.221 404.78 305.228 402.31 285.038 406.801C271.981 409.719 256.951 414.434 245.959 417.937C244.164 418.521 242.459 419.015 240.934 419.509C223.929 424.808 200.419 429.388 184.761 421.125C177.941 417.533 173.32 411.83 170.987 404.241C168.25 395.394 170.044 387.985 176.191 382.237C187.004 372.133 209.392 369.574 224.243 367.912C225.679 367.733 227.07 367.598 228.371 367.418C229.897 367.239 231.467 367.059 233.082 366.879C247.753 365.173 267.854 362.793 273.058 357.943C274.09 357 273.911 356.461 273.776 356.102C273.597 355.608 271.533 351.028 247.843 346.941C235.011 344.741 218.231 343.124 202.977 342.63C167.801 341.463 145.009 338.23 131.235 332.392C124.46 329.518 111.942 320.267 107.276 307.649C104.584 300.419 104.898 293.369 108.218 286.723C110.237 282.591 112.75 279.134 115.711 276.394C125.896 266.919 141.33 265.797 160.308 273.206C167.577 276.035 174.531 279.673 181.216 283.175C187.408 286.408 193.241 289.462 198.849 291.618C208.226 295.21 219.263 298.578 228.416 300.644C239.812 303.158 244.03 302.754 245.331 302.44C245.061 301.497 243.805 299.386 239.049 295.479C234.114 291.483 226.935 286.723 218.635 281.244C204.592 271.949 187.139 260.408 171.66 246.442C150.797 227.627 140.118 211.64 139.894 198.887C139.804 192.87 141.958 187.661 146.4 183.395C146.534 183.305 146.624 183.17 146.759 183.08C158.469 172.168 177.896 174.054 200.06 188.245C220.654 201.447 237.658 221.744 242.369 227.627C243.85 229.513 245.376 231.399 246.901 233.33C254.663 243.074 262.649 253.133 269.469 260.318C279.429 270.781 282.256 270.063 282.57 269.973C282.974 269.793 283.378 269.569 283.736 269.21C289.39 263.956 288.806 242.042 284.993 223.9C281.628 207.958 282.032 187.167 293.248 176.704C296.793 173.381 301.234 171.27 306.439 170.417C317.386 168.621 326.315 171.674 333 179.398V442.276C332.686 442.635 332.372 443.039 332.058 443.399C328.738 447.35 325.597 451.033 322.726 454.266Z" fill="#F5C2CB"/>
</g>
<defs>
<clipPath id="clip0">
<rect width="333" height="476" fill="white"/>
</clipPath>
</defs>
</svg>
