<svg width="173" height="252" fill="none" xmlns="http://www.w3.org/2000/svg"><g clip-path="url(#clip0)"><path d="M19.875 142.531c-3.477 16.028-19.047 22.882-27.11 35.784-11.74 18.85-8.616 37.548-4.333 56.751 1.512 6.753 6.45 11.491 13.453 13.91 31.694 11.088 63.538-10.029 63.992-43.445.252-19.051-1.16-38.102-1.915-60.228 8.213 8.064 14.41 14.717 21.162 20.664 19.802 17.439 47.465 21.723 67.317 10.736 18.139-10.08 23.783-24.192 18.895-47.376-2.973-14.163-12.345-19.959-33.759-21.42-12.849-.857-25.748-1.966-38.546-3.226-3.225-.302-7.306-.605-8.616-4.133-1.461-3.88 2.267-6.048 4.686-8.114 7.306-6.099 15.116-11.693 22.271-17.993 16.88-15.02 14.864-50.148-3.678-67.637-12.849-12.146-42.023-7.56-55.98 9.022-13 15.422-16.577 33.869-16.98 53.424-.151 6.4 3.728 15.321-3.427 18.446-6.298 2.722-11.84-4.737-17.383-8.316-7.508-4.889-14.461-10.735-22.22-15.22-21.264-12.298-45.701-2.672-59.91 23.083-11.942 21.823-5.291 40.824 18.038 52.869 13.604 7.006 27.713 8.467 42.526 5.947 7.206-1.209 14.411-2.268 21.616-3.376.504-.202 1.008-.353 1.512-.555-.504.151-1.058.303-1.612.403z" fill="#FBDB65"/></g><defs><clipPath id="clip0"><path fill="#fff" transform="translate(-68)" d="M0 0h241v252H0z"/></clipPath></defs></svg>