<svg width="130" height="130" fill="none" xmlns="http://www.w3.org/2000/svg"><path d="M68 129c0 .25-.15.4-.4.4l-3.5-.05c-2.45-.05-3.9-1.75-3.85-4.4l.15-11.8c.05-2.65 1.55-4.35 3.95-4.3l3.5.05c.25 0 .4.15.4.4L68 129zm-3.05-17.45h-.65c-.9 0-1.05.65-1.05 2.25l-.15 10.5c0 1.6.15 2.25 1 2.3h.65c.25 0 .4-.15.4-.4l.2-14.2c0-.25-.15-.45-.4-.45zm-7.3-2.9l-3.9 19.3c-.05.25-.2.35-.5.3l-2-.4c-.25-.05-.35-.25-.3-.5l3.9-19.3c.05-.25.2-.4.5-.3l2 .4c.2.05.35.25.3.5zm-5.85-1.3l-7.4 18.25c-.1.25-.3.35-.55.25l-3.25-1.3c-2.15-.85-3-3.05-2-5.5l1.35-3.35c.55-1.35 1.35-2.15 2.35-2.6.15-.1.3-.2.35-.4l1.9-8.05c.1-.45.3-.5.5-.4l1.85.75c.25.1.35.25.25.65l-1.8 7.1c-.05.25 0 .45.25.55l.2.1c.25.1.45 0 .55-.25l2.75-6.85c.1-.25.3-.35.55-.25l1.9.75c.25.1.3.35.25.55zm-7.6 8.3c-.7-.3-1.2.25-1.8 1.7l-.9 2.15c-.6 1.45-.55 2.2.1 2.5l.6.25c.25.1.45 0 .55-.25l2.25-5.6c.1-.25 0-.45-.25-.55l-.55-.2zm-12.7 3.85c-.15.2-.35.25-.55.1l-4.1-2.8c-.2-.15-.25-.35-.1-.55l1-1.45c.15-.2.35-.25.55-.1l1.7 1.15c.2.15.45.1.55-.1l3.05-4.55c.15-.2.1-.45-.1-.55l-1.7-1.15c-.2-.15-.25-.35-.1-.55l1-1.45c.15-.2.35-.25.55-.1l1.7 1.15c.2.15.45.1.55-.1l3.2-4.7c.15-.2.1-.45-.1-.55l-1.7-1.15c-.2-.15-.25-.35-.1-.55l1-1.45c.15-.2.35-.25.55-.1l4.1 2.8c.2.15.25.35.1.55L31.5 119.5zm-7.1-10c-1.9 1.85-4.15 1.95-5.85.2-1.7-1.75-1.5-4 .4-5.85l1.6-1.55c.2-.15.4-.15.6 0l1.4 1.5c.15.2.15.4 0 .6l-1.15 1.1c-1.15 1.1-1.5 1.7-.9 2.35.6.65 1.2.25 2.35-.85l7.75-7.5c1.15-1.1 1.5-1.7.9-2.35-.6-.6-1.2-.25-2.35.85L28 99.1c-.2.15-.4.15-.6 0L26 97.6c-.15-.2-.15-.4 0-.6l1.6-1.55c1.9-1.85 4.15-1.95 5.85-.2 1.7 1.75 1.5 4-.4 5.85l-8.65 8.4zM12.8 102c-.2.15-.45.1-.55-.15l-3.2-5.05c-.15-.2-.1-.4.15-.55l1.6-1c.2-.15.45-.1.55.15l.65 1c.15.2.35.25.55.15L26.9 87.5c.2-.15.4-.1.55.15l1.1 1.75c.15.2.1.45-.15.55L14.05 99c-.2.15-.25.35-.15.55l.6.95c.15.2.1.4-.15.55l-1.55.95zm-2.75-12.35c-2.5.9-4.6.15-5.45-2.15-.85-2.3.25-4.25 2.7-5.2l11.35-4.2c2.5-.9 4.6-.15 5.45 2.15.85 2.3-.25 4.25-2.7 5.2l-11.35 4.2zm11.5-8.45c-.3-.8-1-.75-2.5-.2l-10.1 3.75c-1.5.55-2.05.95-1.75 1.75.3.8 1 .75 2.5.2l10.1-3.75c1.45-.5 2.05-.9 1.75-1.75zm.1-7L2.1 76.7c-.25.05-.4-.1-.45-.35L1.2 72.9c-.3-2.3 1.2-4.1 3.8-4.45L8.6 68c1.45-.2 2.55.1 3.4.8.15.1.3.15.55.1l7.95-2.3c.45-.1.6 0 .6.25l.25 2c.05.25-.05.45-.45.55l-7.1 1.9c-.25.05-.4.2-.35.45l.05.2c.05.25.2.4.45.35l7.35-.95c.25-.05.4.1.45.35l.25 2.05c.05.25-.1.45-.35.45zM10.7 71.7c-.1-.75-.8-.95-2.4-.75l-2.3.3c-1.55.2-2.2.6-2.1 1.3l.1.6c.05.25.2.4.45.35l5.95-.75c.25-.05.4-.2.35-.45l-.05-.6zm10.2-9.05l-6.9-.6h-.35L1.1 63.4c-.25.05-.4-.1-.4-.35l.2-2.2c0-.2.2-.35.45-.35l7.4-.3c.15 0 .15-.25 0-.25L1.5 58.4c-.25-.05-.4-.25-.4-.4l.2-2.2c0-.2.2-.35.45-.25l12.15 3.5c.1.05.25.05.35.05l6.9.6c.25 0 .4.2.35.45l-.2 2.15c0 .25-.2.4-.4.35zM7.95 36.1c-.2-.1-.3-.35-.15-.55l1.75-3c1.25-2.1 3.45-2.5 5.75-1.2l10.2 5.95c2.3 1.35 3 3.45 1.8 5.55l-1.75 3c-.1.2-.35.25-.55.15L7.95 36.1zm16.65 5.95l.35-.55c.45-.75-.05-1.25-1.45-2.05l-9.1-5.3c-1.35-.8-2.05-1-2.5-.25l-.3.6c-.1.2-.05.4.15.55l12.3 7.15c.2.1.4.1.55-.15zm6.15-4.9L15.9 24.2c-.2-.15-.2-.35-.05-.6l1.35-1.55c.15-.2.4-.2.6-.05l14.85 12.95c.2.15.2.35.05.6l-1.35 1.55c-.15.15-.4.2-.6.05zm4-4.5L22.5 17.25c-.15-.2-.15-.4.05-.6l2.75-2.2c1.8-1.45 4.1-1.1 5.75.95l2.25 2.85c.9 1.15 1.2 2.2 1.1 3.3 0 .15 0 .35.2.5l6.05 5.6c.3.3.3.5.1.65l-1.55 1.25c-.2.15-.4.2-.7-.1l-5.25-5c-.15-.2-.4-.2-.6-.05l-.15.1c-.2.15-.2.4-.05.6L37 30.85c.15.2.15.4-.05.6l-1.6 1.3c-.2.1-.4.1-.6-.1zM31.3 22c.6-.45.4-1.2-.6-2.4l-1.45-1.8c-1-1.25-1.65-1.6-2.25-1.15l-.5.4c-.2.15-.2.4-.05.6l3.75 4.7c.15.2.4.2.6.05l.5-.4zm2.85-12.95c-.1-.2-.05-.45.2-.55l4.45-2.2c.2-.1.45-.05.55.2l.8 1.55c.1.2.05.45-.2.55l-1.9.9c-.2.1-.3.35-.2.55l2.45 4.9c.1.2.35.3.55.2l1.85-.9c.2-.1.45-.05.55.2l.8 1.55c.1.2.05.45-.2.55l-1.85.9c-.2.1-.3.35-.2.55l2.55 5.1c.1.2.35.3.55.2l1.85-.9c.2-.1.45-.05.55.2l.8 1.55c.1.2.05.45-.2.55l-4.45 2.2c-.2.1-.45.05-.55-.2L34.15 9.05zM46.4 7.8c-.65-2.55.35-4.6 2.7-5.2 2.35-.6 4.2.65 4.85 3.25L54.5 8c.05.25-.05.45-.3.5l-2 .5c-.25.05-.45-.05-.5-.3l-.4-1.55C50.9 5.6 50.55 5 49.75 5.2c-.85.2-.85.9-.45 2.45l2.65 10.45c.4 1.55.7 2.15 1.55 1.95.8-.2.85-.9.45-2.45l-.4-1.55c-.05-.25.05-.45.3-.5l2-.5c.25-.05.45.05.5.3l.55 2.15c.65 2.55-.35 4.6-2.7 5.2-2.35.6-4.2-.65-4.85-3.25L46.4 7.8zm12.25-6.4c0-.25.15-.4.4-.45l6-.3c.25 0 .4.1.45.4l.1 1.9c0 .25-.15.4-.4.45l-1.2.05c-.25 0-.4.2-.4.45l.8 16.95c0 .25-.1.4-.4.45l-2.05.1c-.25 0-.4-.15-.45-.4l-.8-16.95c0-.25-.2-.4-.45-.4l-1.1.05c-.25 0-.4-.1-.45-.4l-.05-1.9zm12 3.7c.4-2.6 2.15-4.05 4.55-3.7 2.4.4 3.6 2.3 3.2 4.9l-1.9 12c-.4 2.6-2.15 4.05-4.55 3.7-2.4-.4-3.6-2.3-3.2-4.9l1.9-12zm1.7 14.15c.85.15 1.15-.5 1.4-2.1l1.7-10.65c.25-1.55.2-2.25-.65-2.4-.85-.15-1.15.5-1.4 2.1l-1.7 10.65c-.25 1.55-.2 2.25.65 2.4zm6.1 3.55L85.9 4.55c.1-.25.3-.35.55-.2L89.7 5.7c2.15.85 3 3.05 1.95 5.5l-1.35 3.35c-.55 1.35-1.35 2.15-2.35 2.6-.15.1-.3.2-.35.4l-1.95 8.05c-.1.45-.3.5-.5.4l-1.85-.75c-.25-.1-.35-.25-.25-.65l1.85-7.1c.05-.25 0-.45-.2-.55l-.2-.1c-.25-.1-.45 0-.55.2l-2.8 6.85c-.1.25-.3.35-.55.2l-1.9-.8a.345.345 0 01-.25-.5zm7.6-8.25c.7.3 1.2-.25 1.8-1.7l.85-2.15c.6-1.45.6-2.2-.1-2.5l-.6-.25c-.25-.1-.45 0-.55.2l-2.3 5.55c-.1.25 0 .45.2.55l.7.3zm2.8 13.25l3.95-5.7c.05-.1.15-.2.2-.3l5-11.6c.1-.25.3-.3.5-.15l1.8 1.25c.15.1.2.35.1.55L97 18.4c-.05.15.15.25.25.15l4.95-5.5c.15-.2.4-.25.55-.1l1.8 1.25c.2.1.2.35 0 .5l-9.05 8.8c-.1.05-.15.2-.25.3l-3.95 5.7c-.15.2-.35.25-.55.1l-1.8-1.25c-.2-.1-.25-.35-.1-.55zm29.5 1.85c.2-.1.4-.1.55.15l1.75 3.05c1.25 2.1.5 4.25-1.8 5.55l-10.2 5.95c-2.3 1.35-4.5.9-5.75-1.2l-1.75-3.05c-.1-.2-.05-.45.15-.55l17.05-9.9zm-13.4 11.55l.35.55c.45.75 1.1.55 2.5-.25l9.1-5.3c1.35-.8 1.9-1.3 1.45-2.05l-.35-.55c-.1-.2-.35-.25-.55-.1l-12.3 7.15c-.25.15-.3.35-.2.55zm1.3 7.8l18.6-6.55c.25-.1.45 0 .5.25l.7 1.95c.1.25 0 .45-.25.5l-18.6 6.55c-.25.1-.45 0-.5-.25l-.7-1.95c-.1-.2 0-.4.25-.5zm1.85 5.65l19.45-3.05c.25-.05.45.05.45.35l.55 3.45c.35 2.25-1.05 4.15-3.7 4.55l-3.55.55c-1.45.2-2.55-.05-3.45-.7-.15-.1-.3-.15-.55-.1l-7.9 2.5c-.4.1-.6 0-.6-.25l-.3-1.95c-.05-.25.05-.45.45-.55l7.05-2.1c.25-.05.4-.25.35-.45l-.05-.2c-.05-.25-.25-.4-.45-.35l-7.3 1.15c-.25.05-.45-.05-.45-.35l-.3-2.05c-.05-.2.1-.4.3-.45zm11.05 2.25c.1.75.85.9 2.4.7l2.25-.35c1.55-.25 2.2-.65 2.1-1.4l-.1-.6c-.05-.25-.25-.4-.45-.35l-5.95.95c-.25.05-.4.25-.35.45l.1.6zm9.8 8.9c.25 0 .4.15.4.45l-.25 4.95c0 .25-.2.4-.45.4l-1.75-.1c-.25 0-.4-.2-.4-.45l.1-2.1c0-.25-.15-.4-.4-.45l-5.45-.3c-.25 0-.4.15-.45.4l-.1 2.1c0 .25-.2.4-.45.4L118 71c-.25 0-.4-.2-.4-.45l.1-2.1c0-.25-.15-.4-.4-.45l-5.7-.3c-.25 0-.4.15-.45.4l-.1 2.1c0 .25-.2.4-.45.4l-1.6-.1c-.25 0-.4-.2-.4-.45l.25-4.95c0-.25.2-.4.45-.4l19.65 1.1zM124 77.1c2.55.7 3.8 2.55 3.2 4.9-.65 2.35-2.65 3.35-5.2 2.65l-2.15-.6c-.25-.05-.35-.25-.3-.5l.55-2c.05-.25.25-.35.5-.3l1.55.4c1.55.4 2.25.4 2.45-.4.25-.85-.4-1.2-1.9-1.6l-10.4-2.8c-1.55-.4-2.25-.45-2.45.4-.2.8.4 1.2 1.9 1.6l1.55.4c.25.05.35.25.3.5l-.55 2c-.05.25-.25.35-.5.3l-2.15-.6c-2.55-.7-3.8-2.55-3.2-4.9.65-2.35 2.65-3.35 5.2-2.65l11.6 3.2zm-.45 13.8c.2.1.3.35.2.55l-2.7 5.35c-.1.2-.3.3-.55.2l-1.7-.85c-.2-.1-.3-.35-.2-.55l.55-1.05c.1-.2.05-.45-.2-.55l-15.15-7.7c-.2-.1-.3-.3-.2-.55l.95-1.85c.1-.2.35-.3.55-.2l15.15 7.7c.2.1.45.05.55-.2l.5-1c.1-.2.3-.3.55-.2l1.7.9zm-9.2 8.65c2.05 1.65 2.45 3.85.95 5.75-1.5 1.9-3.75 2-5.85.35L100 98.1c-2.05-1.65-2.45-3.85-.95-5.75 1.5-1.9 3.75-2 5.85-.35l9.45 7.55zm-13.15-5.5c-.55.7-.1 1.25 1.1 2.25l8.4 6.75c1.25 1 1.85 1.3 2.4.6.55-.7.1-1.25-1.1-2.25l-8.4-6.75c-1.2-1-1.85-1.3-2.4-.6zm-6 3.5L107.4 113c.15.2.15.4-.05.6l-2.75 2.15c-1.8 1.4-4.1 1.1-5.75-1l-2.25-2.85c-.9-1.15-1.2-2.2-1.1-3.3 0-.15 0-.35-.2-.5l-6.05-5.65c-.3-.3-.3-.5-.1-.65l1.55-1.25c.2-.15.4-.2.7.1l5.3 5.1c.15.2.4.2.6.05l.15-.15c.2-.15.2-.4.05-.6l-4.6-5.8c-.15-.2-.15-.4.05-.6l1.6-1.25c.25-.1.5-.05.65.15zm3.45 10.7c-.6.45-.4 1.2.6 2.45l1.4 1.8c1 1.25 1.65 1.6 2.2 1.15l.5-.4c.2-.15.2-.4.05-.6l-3.75-4.7c-.15-.2-.4-.2-.6-.05l-.4.35zm-12.95-4.1l3.05 6.25c.05.1.1.2.2.3l7.6 10.1c.15.2.1.4-.1.5l-1.95.95c-.15.1-.4 0-.5-.2l-4.05-6.2c-.1-.1-.3 0-.25.1l2.35 7c.1.25 0 .45-.15.55l-1.95.95c-.2.1-.4 0-.45-.25L86.3 112c0-.1-.1-.25-.15-.35l-3.05-6.25c-.1-.2-.05-.45.2-.55l1.95-.95c.1-.05.3.05.45.25z" fill="#171C8F"/></svg>