<svg width="320" height="37" fill="none" xmlns="http://www.w3.org/2000/svg"><path d="M26 1C12.245 1 1 12.2 1 25.9V37h50V25.9C51 12.2 39.805 1 26 1zM1.954 36.05V25.9C1.954 12.7 12.747 1.95 26 1.95S50.046 12.7 50.046 25.9V36H1.954v.05z" fill="#2D3185"/><path d="M42.466 27.1h-12.65l12.349-3.3c.25-.05.401-.35.351-.6-.05-.25-.351-.4-.602-.35l-12.3 3.35 11.145-6.4c.251-.15.301-.4.15-.65-.15-.25-.401-.3-.652-.15l-11.195 6.4 9.187-9.15c.1-.1.15-.2.15-.35 0-.15-.05-.25-.15-.35-.1-.1-.2-.15-.351-.15a.458.458 0 00-.352.15l-9.086 9.1 6.526-11.25c.15-.25.05-.5-.15-.65-.101-.05-.252-.1-.352-.05-.1.05-.2.1-.301.2l-6.627 11.45 3.464-12.8c.05-.25-.1-.5-.351-.6a.546.546 0 00-.603.35l-3.363 12.5v-13c0-.25-.201-.45-.452-.45s-.452.2-.452.45v13l-3.413-12.6c-.05-.1-.1-.25-.201-.3-.1-.05-.251-.1-.352-.05-.25.05-.401.35-.351.6l3.464 12.9-6.777-11.6c-.15-.25-.402-.3-.653-.15-.1.05-.2.15-.2.3-.05.1 0 .25.05.35l6.626 11.45-9.337-9.35a.457.457 0 00-.352-.15c-.15 0-.25.05-.351.15-.1.1-.15.2-.15.35 0 .15.05.25.15.35l9.387 9.35-11.445-6.6c-.1-.05-.251-.1-.352-.05-.1.05-.2.1-.301.2-.15.25-.05.5.15.65l11.446 6.6-12.7-3.4c-.1-.05-.251 0-.352.05-.1.05-.2.15-.2.3-.05.1 0 .25.05.35.05.1.15.2.3.2l12.651 3.4H9.534a.449.449 0 100 .9h32.932c.25 0 .452-.2.452-.45s-.15-.45-.452-.45z" fill="#2D3185"/><path d="M101.881 18.568c-.055 1.103-.328 1.974-.82 2.612-.493.638-1.151.957-1.976.957-.852 0-1.4-.383-1.64-1.149-.247.388-.53.677-.848.868-.315.187-.64.28-.978.28-.647 0-1.137-.264-1.47-.792-.332-.529-.455-1.26-.369-2.195.069-.752.24-1.422.513-2.01.278-.592.633-1.057 1.066-1.394.438-.337.896-.506 1.374-.506.37 0 .7.05.992.15.291.096.62.288.984.575l-.356 3.787c-.086 1.053.206 1.58.876 1.58.514 0 .931-.256 1.25-.767.32-.51.493-1.175.52-1.996.087-1.772-.244-3.124-.991-4.053-.743-.93-1.876-1.395-3.398-1.395-.916 0-1.73.228-2.44.684-.711.45-1.272 1.105-1.682 1.962-.41.856-.64 1.845-.69 2.966-.055 1.13.082 2.113.41 2.947.328.83.827 1.463 1.497 1.9.675.442 1.488.663 2.44.663.41 0 .82-.05 1.231-.15.415-.1.759-.23 1.032-.39l.253.786c-.282.178-.658.324-1.128.438-.465.114-.936.17-1.415.17-1.14 0-2.119-.257-2.94-.772-.82-.51-1.435-1.248-1.845-2.215-.406-.961-.581-2.087-.526-3.377.054-1.253.335-2.378.84-3.377.506-1.002 1.192-1.775 2.058-2.317.866-.547 1.844-.82 2.933-.82 1.134 0 2.107.255 2.919.765.811.51 1.415 1.247 1.811 2.208.397.962.568 2.088.513 3.377zm-7.014.581c-.064.648-.004 1.144.178 1.49.187.347.48.52.882.52.273 0 .535-.116.786-.348.255-.233.465-.566.629-.998l.007-.062.314-3.439a1.758 1.758 0 00-.82-.198c-.533 0-.975.271-1.326.814-.347.542-.563 1.283-.65 2.221zm18.455 1.545c-.337.483-.809.846-1.415 1.087-.602.237-1.303.356-2.105.356-.812 0-1.532-.19-2.161-.568-.629-.383-1.116-.925-1.463-1.627-.341-.701-.517-1.515-.526-2.44v-.868c0-1.5.349-2.662 1.046-3.486.702-.825 1.686-1.238 2.953-1.238 1.039 0 1.875.267 2.509.8.633.529 1.021 1.28 1.162 2.256h-1.312c-.247-1.317-1.03-1.976-2.352-1.976-.88 0-1.547.31-2.003.93-.451.615-.679 1.508-.684 2.68v.813c0 1.117.256 2.005.766 2.666.51.656 1.201.985 2.071.985a4.56 4.56 0 001.292-.165c.369-.109.675-.294.916-.553V18.11h-2.303v-1.066h3.609v3.65zm9.93-1.292h-4.169L118.146 22h-1.354l3.801-9.953h1.149L125.549 22h-1.346l-.951-2.598zm-3.773-1.08h3.384l-1.696-4.655-1.688 4.655zm13.301-.348h-2.338V22h-1.32v-9.953h3.295c1.121 0 1.983.255 2.584.765.606.51.909 1.254.909 2.229 0 .62-.168 1.16-.505 1.62-.333.46-.798.804-1.395 1.032l2.338 4.225V22h-1.408l-2.16-4.026zm-2.338-1.074h2.016c.652 0 1.169-.168 1.552-.505.387-.338.581-.789.581-1.354 0-.615-.184-1.087-.554-1.415-.364-.328-.893-.494-1.586-.499h-2.009V16.9zm9.554 5.1v-9.953h2.81c.866 0 1.631.191 2.297.574a3.864 3.864 0 011.538 1.634c.364.706.549 1.518.553 2.434v.635c0 .939-.182 1.762-.547 2.468a3.797 3.797 0 01-1.551 1.627c-.67.378-1.452.572-2.345.581h-2.755zm1.313-8.873v7.8h1.38c1.012 0 1.798-.315 2.359-.944.565-.628.848-1.524.848-2.686v-.581c0-1.13-.267-2.008-.8-2.632-.529-.629-1.281-.948-2.256-.957h-1.531zm15.741 4.272h-4.314v3.528h5.011V22h-6.323v-9.953h6.255v1.08h-4.943v3.2h4.314v1.072zM169.27 22h-1.319l-5.011-7.67V22h-1.319v-9.953h1.319l5.024 7.704v-7.704h1.306V22zm11.892-3.158c-.123 1.053-.512 1.866-1.169 2.44-.651.57-1.519.855-2.604.855-1.176 0-2.119-.422-2.83-1.265-.706-.843-1.06-1.971-1.06-3.384v-.957c0-.925.164-1.738.493-2.44.332-.702.802-1.24 1.408-1.614.606-.378 1.308-.567 2.105-.567 1.057 0 1.905.296 2.543.889.638.588 1.01 1.404 1.114 2.447h-1.319c-.114-.793-.362-1.367-.745-1.723-.378-.355-.909-.533-1.593-.533-.838 0-1.497.31-1.975.93-.474.62-.711 1.502-.711 2.645v.964c0 1.08.225 1.94.676 2.577.452.638 1.083.957 1.894.957.729 0 1.287-.164 1.675-.492.392-.332.651-.909.779-1.73h1.319zM186.608 22h-1.312v-9.953h1.312V22zm11.319-8.873h-3.2V22h-1.305v-8.873h-3.193v-1.08h7.698v1.08zm6.861 3.917l2.597-4.997h1.491l-3.432 6.241V22h-1.313v-3.712l-3.431-6.241h1.504l2.584 4.997zm14.729 1.798c-.123 1.053-.513 1.866-1.169 2.44-.652.57-1.52.855-2.604.855-1.176 0-2.12-.422-2.831-1.265-.706-.843-1.059-1.971-1.059-3.384v-.957c0-.925.164-1.738.492-2.44.333-.702.802-1.24 1.408-1.614.606-.378 1.308-.567 2.106-.567 1.057 0 1.905.296 2.543.889.638.588 1.009 1.404 1.114 2.447h-1.319c-.114-.793-.363-1.367-.746-1.723-.378-.355-.909-.533-1.592-.533-.839 0-1.497.31-1.976.93-.474.62-.711 1.502-.711 2.645v.964c0 1.08.226 1.94.677 2.577.451.638 1.082.957 1.894.957.729 0 1.287-.164 1.674-.492.392-.332.652-.909.78-1.73h1.319zm9.664-1.443h-4.314v3.528h5.011V22h-6.323v-9.953h6.255v1.08h-4.943v3.2h4.314v1.072zM241.401 22h-1.319l-5.011-7.67V22h-1.319v-9.953h1.319l5.025 7.704v-7.704h1.305V22zm11.243-8.873h-3.199V22h-1.306v-8.873h-3.192v-1.08h7.697v1.08zm9.343 4.272h-4.314v3.528h5.011V22h-6.323v-9.953h6.255v1.08h-4.943v3.2h4.314v1.072zm8.221.575h-2.338V22h-1.319v-9.953h3.295c1.121 0 1.982.255 2.584.765.606.51.909 1.254.909 2.229 0 .62-.169 1.16-.506 1.62-.333.46-.797.804-1.394 1.032l2.338 4.225V22h-1.409l-2.16-4.026zM267.87 16.9h2.017c.652 0 1.169-.168 1.552-.505.387-.338.581-.789.581-1.354 0-.615-.185-1.087-.554-1.415-.365-.328-.893-.494-1.586-.499h-2.01V16.9z" fill="#171C8F"/></svg>