<svg width="98" height="139" fill="none" xmlns="http://www.w3.org/2000/svg"><path d="M49.025 0C22.001 0 0 21.963 0 48.94v90.11h98V48.94C98 21.964 76.05 0 49.025 0zM1.808 137.195V48.941c0-25.975 21.198-47.136 47.217-47.136 26.02 0 47.217 21.161 47.217 47.136v88.304H1.808v-.05z" fill="#fff"/><path d="M81.323 51.298H56.258l24.362-6.52c.502-.15.754-.6.653-1.102-.15-.502-.603-.752-1.105-.652l-24.362 6.519 22.102-12.737c.2-.1.351-.3.402-.552.05-.25.05-.45-.1-.702-.152-.25-.302-.35-.553-.4-.252-.05-.453-.05-.704.1L54.802 48.038l18.183-18.152a.953.953 0 00.251-.652c0-.25-.1-.451-.25-.652a.956.956 0 00-.654-.25c-.251 0-.452.1-.653.25L53.596 46.634l12.91-22.314a.91.91 0 00-.352-1.254c-.201-.1-.452-.15-.703-.1a.777.777 0 00-.553.401l-13.11 22.615 6.831-25.423c.15-.501-.15-.953-.653-1.103-.502-.15-.954.15-1.105.652l-6.68 24.821V19.205a.9.9 0 00-.905-.902.9.9 0 00-.904.902V44.98l-6.58-24.972a.776.776 0 00-.402-.552c-.2-.1-.452-.15-.703-.1-.502.15-.754.601-.653 1.103l6.881 25.624-13.26-23.017a.913.913 0 00-1.256-.35c-.201.1-.352.3-.402.551-.05.25-.05.451.1.702l13.06 22.665-18.484-18.453a.88.88 0 00-1.256 0 .808.808 0 00-.302.652c0 .25.1.451.252.652l18.635 18.604L21.248 34.95a.913.913 0 00-1.256.35.91.91 0 00.351 1.254l22.654 13.088-25.115-6.82c-.251-.05-.452-.05-.703.1a.775.775 0 00-.402.552c-.15.502.15.953.653 1.103l25.166 6.72h-25.92a.9.9 0 00-.904.902.9.9 0 00.905.903h64.596a.9.9 0 00.904-.903c.05-.501-.351-.902-.854-.902zM31.846 73.21c-.1-.45-.25-.952-.502-1.403-.251-.451-.553-.903-1.005-1.254a5.163 5.163 0 00-1.657-.852c-.653-.2-1.457-.301-2.411-.301-.955 0-1.758.1-2.411.3-.653.201-1.206.502-1.658.903a4.138 4.138 0 00-1.055 1.254 4.7 4.7 0 00-.502 1.404c-.1.451-.15.953-.201 1.404 0 .451-.05.802-.05 1.153v39.715c0 .551.05 1.153.1 1.805.05.752.302 1.454.653 2.106.352.702.955 1.304 1.758 1.755.804.451 1.909.702 3.366.702 1.406 0 2.511-.251 3.315-.702a4.538 4.538 0 001.758-1.755 5.326 5.326 0 00.603-2.106c.05-.702.1-1.304.1-1.805V95.926h-6.68v2.357h4.169v17.149c0 .402 0 .903-.05 1.404 0 .452-.151.903-.352 1.354a2.48 2.48 0 01-.904 1.003c-.402.301-1.055.401-1.91.401h-.1c-.854 0-1.506-.15-1.959-.401-.452-.301-.753-.602-.954-1.003-.2-.401-.301-.852-.352-1.354-.05-.501-.05-1.002-.05-1.404V75.969c0-.401 0-.853.05-1.354a4.49 4.49 0 01.352-1.354c.2-.401.502-.752.954-1.003.453-.25 1.105-.401 1.96-.401h.05c.854 0 1.507.15 1.959.401.452.301.753.602.954 1.003.2.401.301.853.352 1.354.05.501.05.953.05 1.404v5.767h2.511v-5.867c0-.351 0-.752-.05-1.154 0-.601-.1-1.053-.2-1.554zm23.408.051a4.698 4.698 0 00-.503-1.404c-.25-.451-.552-.903-1.004-1.254-.452-.35-1.005-.651-1.658-.902-.653-.2-1.456-.301-2.41-.301-.955 0-1.759.1-2.412.3-.653.201-1.206.502-1.658.903a4.136 4.136 0 00-1.054 1.254 4.695 4.695 0 00-.503 1.404c-.1.451-.15.953-.2 1.404 0 .401-.05.802-.05 1.153v39.715c0 .351 0 .752.05 1.153 0 .451.1.903.2 1.354.1.451.302.953.503 1.404.25.501.602.903 1.054 1.254.453.351 1.005.651 1.658.902a8.156 8.156 0 002.411.351c1.407 0 2.512-.251 3.315-.702a4.538 4.538 0 001.758-1.755 5.328 5.328 0 00.603-2.106c.05-.702.1-1.304.1-1.805v-5.867h-2.51v5.767c0 .401 0 .902-.051 1.404 0 .451-.15.902-.352 1.353a2.47 2.47 0 01-.904 1.003c-.452.301-1.105.402-1.959.402-.854 0-1.507-.151-1.959-.402a2.7 2.7 0 01-.954-1.053c-.201-.401-.352-.852-.352-1.354-.05-.501-.05-.952-.05-1.404V75.969c0-.401 0-.853.05-1.354.05-.451.15-.903.352-1.354.2-.401.502-.752.954-1.053.452-.3 1.105-.451 1.909-.451h.05c.854 0 1.507.15 1.96.4.451.302.753.603.903 1.004.201.4.302.852.352 1.354.05.501.05.952.05 1.404v5.766h2.512v-5.867c0-.35 0-.752-.05-1.153 0-.451-.05-.903-.151-1.404zm22.101 0c-.1-.451-.25-.953-.502-1.404-.251-.451-.553-.903-1.005-1.254-.452-.35-1.004-.651-1.657-.902-.653-.2-1.457-.301-2.411-.301-.955 0-1.758.1-2.412.3-.652.201-1.205.502-1.657.903a4.136 4.136 0 00-1.055 1.254 4.695 4.695 0 00-.502 1.404c-.1.451-.15.953-.201 1.404 0 .451-.05.802-.05 1.153v39.715c0 .351 0 .702.05 1.153 0 .451.1.903.2 1.354.101.451.302.953.503 1.404a4.14 4.14 0 001.055 1.254c.452.351 1.005.651 1.657.902a8.156 8.156 0 002.412.351c1.406 0 2.511-.251 3.315-.702a4.538 4.538 0 001.758-1.755 5.328 5.328 0 00.603-2.106c.05-.702.1-1.304.1-1.805v-5.867h-2.511v5.767c0 .401 0 .902-.05 1.404 0 .451-.151.902-.352 1.353a2.47 2.47 0 01-.904 1.003c-.453.301-1.106.402-1.96.402-.853 0-1.506-.151-1.958-.402a2.7 2.7 0 01-.955-1.053c-.2-.401-.351-.852-.351-1.354-.05-.501-.05-1.002-.05-1.404V75.969c0-.401 0-.853.05-1.354.05-.451.15-.903.351-1.354.201-.401.502-.752.955-1.053.452-.3 1.105-.451 1.908-.451h.05c.855 0 1.508.15 1.96.4.452.302.753.603.904 1.004.2.4.301.852.351 1.354.05.501.05.952.05 1.404v5.766h2.512v-5.867c0-.35 0-.702-.05-1.153 0-.451-.05-.953-.15-1.404z" fill="#fff"/></svg>