<svg width="223" height="178" fill="none" xmlns="http://www.w3.org/2000/svg"><path d="M200.36 0c4.814.817 5.163 4.008 6.056 6.46 14.21 39.032 25.779 78.842 29.196 120.325 5.668 68.296-65.069 117.096-118.995 101.257-35.213-10.351-59.167-35.646-77.686-66.272C21.227 132.35 14.2 98.689 2.708 66.817c-1.048-2.918-3.144-6.46-.233-9.145 2.95-2.685 6.29-.194 8.93 1.284C29.108 69.074 46.773 79.31 64.32 89.7c10.871 6.421 12.502 6.032 16.151-6.226 5.397-18.29 10.6-36.658 15.801-54.987 2.446-8.6 5.552-10.39 12.929-3.347 14.792 14.087 30.476 27.24 45.812 40.744 13.083 11.52 14.17 10.935 20.266-4.903C183.2 40.355 192.052 20.12 200.36 0z" fill="#7BA3D6"/></svg>