<svg width="298" height="216" fill="none" xmlns="http://www.w3.org/2000/svg"><path d="M296.882 65.536c-.057-.097-.085-.218-.142-.315-4.849-11.02-20.622-16.167-43.268-14.104-21.049 1.918-42.012 9.686-47.945 12.04a595.468 595.468 0 01-5.733 2.258c-9.754 3.86-19.822 7.865-27.865 10.34-11.751 3.618-13.662 2.21-13.833 2.04a2.412 2.412 0 01-.599-.898c-2.339-5.316 6.56-19.541 16.514-30.198 8.756-9.394 16.457-23.206 11.808-33.765-1.483-3.35-4.107-6.215-7.787-8.472-8.613-5.244-17.483-5.875-26.468-1.845-7.786 3.495-14.346 9.928-19.223 15.147-11.124 11.943-23.16 29.882-31.317 42.845-2.453 3.884-4.62 7.719-6.503 11.093-2.168 3.835-4.05 7.161-5.761 9.564-1.997 2.816-2.995 3.229-3.195 3.301-.342-.145-.656-.51-.913-1.068-1.198-2.743-.513-8.423.143-13.909.57-4.66 1.14-9.491.713-13.327-.656-5.583-1.74-12.816-4.535-19.152-2.995-6.845-7.416-11.215-13.12-13.035-13.719-4.346-27.238 7.913-31.089 15.147-3.907 7.306-5.048 26.12-2.196 35.95 4.878 16.847 3.794 22.77 2.025 24.76-3.194 3.617-11.465 3.739-24.642.413-3.765-.947-7.844-2.185-11.951-3.52v34.664c6.503 1.699 12.863 2.695 18.51 3.593 10.04 1.578 17.998 2.84 21.477 6.894 1.34 1.553 2.767 4.054 4.25 7.452 1.312 3.01 2.596 6.505 3.822 10.219 1.74 5.22 3.366 10.851 4.877 16.07 1.056 3.641 2.054 7.088 3.023 10.171.343 1.117.8 2.282 1.313 3.496 4.791 10.899 16.143 23.813 27.751 26.216 4.963 1.044 9.612.024 13.434-2.888 7.301-5.584 9.298-11.822 6.132-19.032-1.74-3.932-4.792-7.792-7.758-11.53-.713-.922-1.455-1.845-2.168-2.767-.684-.899-1.397-1.797-2.082-2.695-3.622-4.661-7.387-9.467-9.041-13.229-.827-1.845-.941-3.035-.77-3.812.257-1.068 1.14-1.383 1.797-1.602.542-.194 2.253-.364 6.531 1.602 2.824 1.311 6.788 3.545 12.322 7.356 8.984 6.214 18.795 14.273 25.954 20.147 1.17.971 2.282 1.87 3.28 2.695 11.095 9.054 27.552 19.808 42.84 19.517 6.645-.122 12.435-2.355 17.198-6.603 5.505-4.928 7.017-10.365 4.45-16.215-4.478-10.196-20.821-19.226-31.659-25.197-1.056-.583-2.082-1.141-3.024-1.675-.028-.025-.057-.025-.085-.049-1.084-.607-2.196-1.238-3.366-1.869-10.695-5.947-25.327-14.079-27.495-19.007-.427-.947-.085-1.238.143-1.456.314-.292 3.679-2.598 23.587 2.5 10.782 2.767 24.387 7.209 36.366 11.894 7.929 3.083 15.116 5.729 21.676 7.938 16.315 5.511 28.607 8.375 37.82 8.86 6.36.34 19.594-1.65 28.065-8.399.2-.145.371-.315.542-.461 4.478-3.787 6.76-8.35 6.788-13.618 0-3.374-.599-6.481-1.825-9.273-4.221-9.588-15.716-15.365-33.313-16.725-6.732-.51-13.491-.412-20.023-.291-6.046.097-11.751.194-16.884-.219-8.643-.703-18.483-2.111-26.326-3.762-9.783-2.088-12.892-3.738-13.776-4.369.599-.534 2.339-1.505 7.53-2.501 5.362-1.019 12.72-1.796 21.277-2.67 14.432-1.505 32.429-3.374 49.742-7.452 23.388-5.535 37.819-12.55 42.925-20.876 2.51-3.957 2.824-8.084 1.055-12.332z" fill="#F5333F"/></svg>