<svg width="236" height="34" fill="none" xmlns="http://www.w3.org/2000/svg"><path d="M8.172 1.7A3.72 3.72 0 006.846.468C6.246.17 5.434 0 4.406 0 3.424 0 2.61.17 2.012.51A3.296 3.296 0 00.685 1.7a3.96 3.96 0 00-.6 1.53C.044 3.74 0 4.207 0 4.633v24.735c0 .425.043.892.086 1.402a3.86 3.86 0 00.556 1.53c.3.468.77.893 1.326 1.233.642.297 1.455.467 2.482.467 1.026 0 1.84-.17 2.396-.468.599-.34 1.026-.722 1.326-1.232.3-.467.47-.977.513-1.53.086-.51.086-.977.086-1.402V17.68H4.364v2.295h2.14v9.223c0 .255 0 .552-.044.85 0 .297-.085.595-.213.85-.129.255-.3.467-.6.637-.256.17-.684.255-1.24.255-.556 0-.941-.085-1.24-.255-.3-.17-.514-.383-.643-.637a1.924 1.924 0 01-.214-.85c0-.298-.042-.595-.042-.85V4.802c0-.254 0-.552.042-.85 0-.297.086-.595.214-.85.129-.254.343-.467.642-.637.3-.17.685-.255 1.24-.255.514 0 .942.085 1.242.255.256.17.47.383.599.638.128.254.213.552.213.85 0 .34.043.595.043.85V9.01h2.31V4.633c0-.426-.042-.893-.085-1.403-.085-.552-.3-1.063-.556-1.53zM21.692.255h-3.166l-3.723 33.278-.042.212h2.353l.855-9.222h4.279l.856 9.052v.17h2.31L21.692.425v-.17zm-1.583 3.697l1.882 18.36h-3.808l1.926-18.36zm19.124 14.536c.428-.34.77-.808.985-1.36.256-.596.385-1.318.385-2.168V4.632c0-.637-.086-1.232-.257-1.742-.171-.553-.428-1.02-.813-1.403a3.997 3.997 0 00-1.412-.892c-.556-.213-1.283-.298-2.054-.298H31.79v33.448h2.31V19.38h1.883c.257 0 .47 0 .684-.043.172 0 .3-.042.471-.042l1.626 14.28.043.17h2.353L39.32 18.87l-.086-.383zm-.94-13.473v9.605c0 .51-.044.935-.13 1.318a2.03 2.03 0 01-.384.807c-.171.212-.428.34-.728.425-.299.085-.684.127-1.155.127h-1.882V2.38h2.053c.813 0 1.412.212 1.712.595.342.382.513 1.062.513 2.04zm17.07-3.4c-.342-.425-.855-.765-1.454-1.02-.6-.255-1.412-.34-2.353-.34h-4.108v33.448h4.108c.94 0 1.754-.128 2.353-.34.641-.213 1.112-.553 1.454-.978a3.64 3.64 0 00.728-1.53c.128-.595.17-1.233.17-1.955V5.1c0-.722-.042-1.36-.17-1.955a3.903 3.903 0 00-.728-1.53zm-5.647.765h1.754c.428 0 .813.042 1.155.085.3.042.556.17.727.383.214.17.343.467.428.807.086.34.129.85.129 1.445v23.8c0 .595-.043 1.105-.172 1.445-.085.34-.256.638-.427.808-.172.17-.428.297-.728.382-.3.085-.684.085-1.155.085h-1.754V2.38h.043zm13.776 31.365h7.616v-2.082h-5.305V17.68h4.407v-2.168h-4.407V2.422h5.305V.255h-7.616v33.49zm20.238-8.117L79.963.425l-.042-.17h-2.953v33.49h2.183l-.086-27.327 3.765 27.157.043.17h2.952V.255h-2.14l.043 25.373zM110.983 2.72c-.085-.34-.256-.68-.428-1.02-.171-.34-.47-.637-.77-.892a3.505 3.505 0 00-1.198-.596c-.47-.17-1.069-.212-1.711-.212-1.027 0-1.84.17-2.396.468-.599.34-1.027.722-1.369 1.232-.3.468-.471.978-.556 1.53-.086.51-.129.977-.129 1.403v24.735c0 .425.043.892.129 1.402a3.86 3.86 0 00.556 1.53c.299.468.77.893 1.326 1.233.599.34 1.412.51 2.439.51 1.027 0 1.84-.17 2.396-.51.599-.34 1.027-.723 1.326-1.233.3-.467.471-.977.514-1.53.085-.51.085-.977.085-1.402V24.99h-2.31v5.058c0 .297-.086.595-.214.85s-.3.467-.599.637c-.257.17-.685.255-1.198.255h-.043c-.556 0-.941-.085-1.241-.255-.299-.17-.513-.383-.641-.637a1.916 1.916 0 01-.214-.85c0-.298-.043-.595-.043-.85V4.802c0-.254 0-.552.043-.85 0-.297.085-.595.214-.85.128-.254.342-.467.641-.637.3-.17.685-.255 1.241-.255s.941.085 1.241.255c.257.17.471.383.599.638.128.254.214.552.214.85 0 .34.043.637.043.85V9.01h2.31V4.633c0-.255 0-.596-.043-.936a10.131 10.131 0 00-.214-.977zm7.958-2.465h-2.31v33.448h2.31V.255zm4.108 2.125h3.294v31.365h2.31V2.38h3.252V.255h-8.856V2.38zm17.113 13.09L137.809.425v-.17h-2.396l3.594 19.465v14.025h2.311V19.763L144.869.466l.043-.212h-2.396l-2.354 15.215zM167.16 2.72c-.086-.34-.257-.68-.428-1.02-.171-.34-.471-.637-.77-.892a3.523 3.523 0 00-1.198-.596c-.471-.17-1.07-.212-1.712-.212-1.027 0-1.84.17-2.396.468-.599.34-1.027.722-1.369 1.232-.299.468-.47.978-.556 1.53-.086.51-.128.977-.128 1.403v24.735c0 .425.042.892.128 1.402a3.89 3.89 0 00.556 1.53c.3.468.77.893 1.326 1.233.599.34 1.412.51 2.439.51 1.027 0 1.84-.17 2.396-.51.599-.34 1.027-.723 1.326-1.233.3-.467.471-.977.514-1.53.085-.51.085-.977.085-1.402V24.99h-2.31v5.058c0 .297-.085.595-.214.85a1.421 1.421 0 01-.599.637c-.257.17-.684.255-1.198.255h-.043c-.513 0-.941-.085-1.24-.255-.3-.17-.514-.383-.642-.637a1.93 1.93 0 01-.214-.85c0-.34-.043-.595-.043-.85V4.802c0-.254 0-.51.043-.85 0-.297.086-.595.214-.85.128-.254.342-.467.642-.637.299-.17.684-.255 1.24-.255.557 0 .942.085 1.241.255.257.17.471.383.599.638.129.254.214.552.214.85 0 .34.043.637.043.85V9.01h2.31V4.633c0-.255 0-.596-.043-.936-.085-.297-.128-.637-.213-.977zm6.032 31.025h7.616v-2.082h-5.305V17.68h4.406v-2.168h-4.406V2.422h5.305V.255h-7.616v33.49zm19.809-6.588L189.236.425l-.042-.17h-2.91v33.49h2.14L188.381 6.8l3.765 26.775v.17h2.952V.255h-2.139l.042 26.902zm7.06-24.777h3.252v31.365h2.31V2.38h3.252V.255h-8.814V2.38zm13.819 31.365h7.616v-2.082h-5.348V17.68h4.449v-2.168h-4.449V2.422h5.348V.255h-7.616v33.49zm20.238-14.875l-.086-.383c.428-.34.77-.807.984-1.36.257-.595.385-1.317.385-2.167V4.632c0-.637-.086-1.232-.257-1.742-.171-.553-.428-1.02-.813-1.403a3.994 3.994 0 00-1.411-.892c-.557-.213-1.284-.298-2.054-.298h-4.279v33.448h2.311V19.38h1.882c.257 0 .471 0 .685-.043.171 0 .299-.042.47-.042l1.669 14.28.043.17H236l-1.882-14.875zM232.62 2.975c.342.382.471 1.105.471 2.04v9.605c0 .51-.043.935-.129 1.318a2.03 2.03 0 01-.385.807c-.171.212-.428.34-.727.425-.3.085-.685.127-1.155.127h-1.883V2.38h2.054c.856 0 1.455.212 1.754.595z" fill="#fff"/></svg>