<svg width="261" height="173" fill="none" xmlns="http://www.w3.org/2000/svg"><path d="M32.958 27.774C20.914 38.254 11.53 50.783 4.248 64.896c-7.702 14.997-4.715 34.7 6.816 46.53 12.09 12.389 26.795 14.252 44.254 6.241 17.6-8.058 31.23-21.239 45.049-34.187 3.081-2.888 5.508-6.8 10.083-8.29.327 1.303.7 1.955.56 2.468-.747 2.794-1.634 5.542-2.427 8.29-5.415 19.143-6.956 38.379-1.961 57.942 7.563 29.436 39.82 38.751 61.761 17.652 10.736-10.293 15.405-23.428 17.505-37.68.887-6.102 1.027-12.343 1.588-19.376 3.968 3.307 4.481 6.94 5.788 10.107 5.135 12.25 11.577 23.568 21.334 32.836 7.329 6.94 16.199 10.62 25.862 11.924 8.496 1.164 15.592-1.444 20.447-6.614V-27H107.322c-4.061 3.26-8.122 6.428-12.23 9.269C74.038-3.106 52.424 10.913 32.958 27.774z" fill="#E06BA9"/></svg>