<svg width="333" height="476" fill="none" xmlns="http://www.w3.org/2000/svg"><g clip-path="url(#clip0)"><path d="M188.664.45c15.434-1.707 31.362 2.02 47.334 4.804 7.538 1.302 11.441 3.952 6.057 12.08-30.105 45.22-66.537 83.165-118.851 102.25-37.778 13.786-76.229 14.504-114.948 3.413-8.256-2.425-10.454-5.838-6.013-13.921 31.272-56.76 77.575-92.775 141.869-104.81 14.492-2.694 28.849-4.67 44.552-3.817z" fill="#7BA3D6"/><path d="M46.302 163.681c-23.061 6.736-31.182 29.817-26.067 50.25 3.41 13.561 21.94 29.637 43.296 23.62 22.21-6.242 36.342-27.752 30.375-46.882-6.012-19.129-28.4-32.601-47.604-26.988z" fill="#EE3441"/><path d="M322.726 454.266a43.229 43.229 0 01-3.5 3.547c-11.576 10.823-31.137 20.657-44.597 17.603-5.788-1.302-9.961-4.939-12.159-10.463-4.173-10.552-2.468-19.174 5.204-26.314 4.173-3.907 9.691-7.006 14.986-10.014 1.301-.764 2.602-1.482 3.903-2.246 1.256-.718 2.513-1.482 3.814-2.2 6.595-3.772 13.415-7.724 17.363-11.406 4.666-4.356 3.141-6.107 2.243-7.14-.762-.853-4.755-3.323-24.945 1.168-13.057 2.918-28.087 7.633-39.079 11.136-1.795.584-3.5 1.078-5.025 1.572-17.005 5.299-40.515 9.879-56.173 1.616-6.82-3.592-11.441-9.295-13.774-16.884-2.737-8.847-.943-16.256 5.204-22.004 10.813-10.104 33.201-12.663 48.052-14.325 1.436-.179 2.827-.314 4.128-.494 1.526-.179 3.096-.359 4.711-.539 14.671-1.706 34.772-4.086 39.976-8.936 1.032-.943.853-1.482.718-1.841-.179-.494-2.243-5.074-25.933-9.161-12.832-2.2-29.612-3.817-44.866-4.311-35.176-1.167-57.968-4.4-71.742-10.238-6.775-2.874-19.293-12.125-23.959-24.743-2.692-7.23-2.378-14.28.942-20.926 2.019-4.132 4.532-7.589 7.493-10.329 10.185-9.475 25.619-10.597 44.597-3.188 7.269 2.829 14.223 6.467 20.908 9.969 6.192 3.233 12.025 6.287 17.633 8.443 9.377 3.592 20.414 6.96 29.567 9.026 11.396 2.514 15.614 2.11 16.915 1.796-.27-.943-1.526-3.054-6.282-6.961-4.935-3.996-12.114-8.756-20.414-14.235-14.043-9.295-31.496-20.836-46.975-34.802-20.863-18.815-31.542-34.802-31.766-47.555-.09-6.017 2.064-11.226 6.506-15.492.134-.09.224-.225.359-.315 11.71-10.912 31.137-9.026 53.301 5.165 20.594 13.202 37.598 33.499 42.309 39.382 1.481 1.886 3.007 3.772 4.532 5.703 7.762 9.744 15.748 19.803 22.568 26.988 9.96 10.463 12.787 9.745 13.101 9.655.404-.18.808-.404 1.166-.763 5.654-5.254 5.07-27.168 1.257-45.31-3.365-15.942-2.961-36.733 8.255-47.196 3.545-3.323 7.986-5.434 13.191-6.287 10.947-1.796 19.876 1.257 26.561 8.981v262.878c-.314.359-.628.763-.942 1.123-3.32 3.951-6.461 7.634-9.332 10.867z" fill="#F5C2CB"/></g><defs><clipPath id="clip0"><path fill="#fff" d="M0 0h333v476H0z"/></clipPath></defs></svg>